<svg xmlns="http://www.w3.org/2000/svg" width="501.958" height="335.625" viewBox="0 0 501.958 335.625">
  <g id="iconset-organizing" transform="translate(0 0)">
    <path id="路径_2329" data-name="路径 2329" d="M197.866,182.055c1.073-.378,2.16-.781,3.229-1.2l.419,1.075c-1.081.422-2.179.829-3.265,1.211Z" transform="translate(18.048 16.496)" fill="#e6e6e6"/>
    <path id="路径_2330" data-name="路径 2330" d="M138.26,7.037c1.445-.564,2.916-1.1,4.37-1.593L143,6.536c-2.178.739-4.379,1.57-6.513,2.46l-.444-1.066q1.1-.458,2.216-.893Zm-8.619,3.819.515,1.033c-2.072,1.033-4.13,2.149-6.119,3.317l-.584-1c2.011-1.18,4.092-2.309,6.187-3.355Zm19.726-7.449c2.263-.6,4.571-1.129,6.861-1.571l.218,1.133c-2.264.437-4.546.96-6.783,1.554ZM117.511,17.982l.651.953c-1.907,1.3-3.793,2.692-5.606,4.125l-.716-.905c1.834-1.45,3.741-2.854,5.67-4.173ZM163.183.741C165.5.457,167.861.251,170.2.128l.061,1.152c-2.309.122-4.642.326-6.935.607ZM106.472,26.709l.777.854c-1.709,1.554-3.384,3.187-4.979,4.853l-.833-.8c1.613-1.684,3.307-3.335,5.036-4.907ZM177.245,0c2.343.039,4.711.16,7.039.36l-.1,1.15c-2.3-.2-4.643-.317-6.959-.356Zm-80.5,36.859.886.74c-1.479,1.775-2.916,3.623-4.269,5.492l-.935-.677c1.369-1.891,2.822-3.759,4.318-5.555ZM191.28,1.2c2.314.36,4.642.8,6.92,1.32l-.255,1.126c-2.252-.51-4.554-.95-6.842-1.306ZM88.5,48.252l.979.611c-1.224,1.96-2.4,3.987-3.483,6.025l-1.019-.543C86.079,52.284,87.264,50.234,88.5,48.252ZM205.012,4.313c2.238.671,4.483,1.428,6.673,2.25l-.406,1.08c-2.165-.813-4.385-1.561-6.6-2.225ZM81.879,60.666l1.053.472c-.946,2.109-1.832,4.277-2.633,6.445l-1.083-.4C80.026,64.991,80.922,62.8,81.879,60.666Zm136.308-51.4c2.128.97,4.249,2.025,6.3,3.135l-.549,1.015c-2.032-1.1-4.128-2.141-6.232-3.1ZM77,73.869l1.107.326c-.65,2.215-1.233,4.485-1.732,6.745l-1.127-.249c.5-2.285,1.094-4.581,1.752-6.821ZM230.563,15.955c1.976,1.249,3.932,2.583,5.815,3.962l-.682.931c-1.862-1.364-3.8-2.683-5.75-3.918ZM73.971,87.619l1.141.171c-.343,2.288-.61,4.617-.794,6.922l-1.15-.092c.186-2.331.456-4.686.8-7ZM241.908,24.266c1.785,1.506,3.54,3.093,5.217,4.718l-.8.829c-1.658-1.605-3.393-3.175-5.158-4.664ZM72.848,101.66l1.154.012c-.025,2.314.031,4.659.166,6.969l-1.152.067c-.137-2.337-.193-4.708-.168-7.048ZM252,34.047c1.563,1.738,3.085,3.553,4.524,5.394l-.91.711c-1.422-1.82-2.927-3.614-4.473-5.333ZM73.669,115.719l1.145-.147c.294,2.293.671,4.6,1.122,6.869l-1.132.225c-.456-2.291-.837-4.628-1.135-6.947Zm187-70.584c1.308,1.936,2.566,3.943,3.738,5.965l-1,.579c-1.159-2-2.4-3.984-3.7-5.9ZM76.413,129.518l1.114-.3c.6,2.227,1.294,4.464,2.051,6.651l-1.091.377c-.765-2.211-1.463-4.474-2.074-6.726ZM267.723,57.307c1.029,2.094,2,4.254,2.889,6.419l-1.068.438c-.878-2.141-1.839-4.277-2.857-6.347ZM82.075,142.366c.9,2.131,1.886,4.256,2.927,6.315l-1.03.521c-1.053-2.083-2.049-4.231-2.961-6.386Zm6.278,12.415c1.184,1.989,2.45,3.959,3.763,5.855l-.949.657c-1.328-1.918-2.609-3.911-3.806-5.922Zm7.921,11.437c1.442,1.8,2.965,3.578,4.527,5.276l-.849.781c-1.58-1.718-3.12-3.513-4.579-5.336Zm9.409,10.229c1.679,1.589,3.432,3.139,5.212,4.607l-.734.891c-1.8-1.484-3.574-3.052-5.271-4.659Zm10.73,8.846c1.882,1.346,3.832,2.642,5.795,3.853l-.605.982c-1.986-1.224-3.958-2.535-5.861-3.9Zm11.841,7.3c2.045,1.076,4.153,2.1,6.267,3.03l-.467,1.055c-2.138-.945-4.27-1.976-6.338-3.064Zm12.727,5.627c2.176.789,4.4,1.513,6.623,2.151l-.319,1.109c-2.244-.645-4.5-1.377-6.7-2.175Zm13.377,3.845c2.264.485,4.571.9,6.856,1.227l-.164,1.143c-2.312-.333-4.644-.75-6.934-1.242Zm13.782,1.981c2.308.172,4.65.264,6.962.276l-.006,1.154c-2.338-.012-4.707-.106-7.042-.279Zm13.927.07c2.306-.148,4.637-.379,6.927-.685l.153,1.144c-2.317.31-4.674.544-7.006.693Zm13.79-1.847c2.262-.464,4.538-1.012,6.767-1.63l.308,1.113c-2.254.625-4.556,1.18-6.843,1.649Z" transform="translate(6.644)" fill="#e6e6e6"/>
    <path id="路径_2331" data-name="路径 2331" d="M6,30H237.337V132.574H6Z" transform="translate(0.547 2.736)" fill="#6c63ff" opacity="0.3"/>
    <g id="组_17" data-name="组 17" transform="translate(0 27.106)">
      <path id="路径_2332" data-name="路径 2332" d="M0,0H230.9V101.4H0Z" fill="#3f3d56"/>
      <circle id="椭圆_22" data-name="椭圆 22" cx="12.8" cy="12.8" r="12.8" transform="translate(65.254 58.227)" fill="#ff6584"/>
      <path id="路径_2333" data-name="路径 2333" d="M140.262,54.28l6.651,11.52,6.651,11.519h-26.6L133.611,65.8Z" transform="translate(11.58 4.951)" fill="#ff6584"/>
      <path id="路径_2334" data-name="路径 2334" d="M51.513,52.741h-26.1a91.292,91.292,0,0,1,0-31.121h26.1A56,56,0,0,0,51.513,52.741Zm49.192,0h26.1a91.292,91.292,0,0,0,0-31.121h-26.1A56,56,0,0,1,100.705,52.741Z" transform="translate(2.196 1.972)" fill="#6c63ff"/>
    </g>
    <path id="路径_2335" data-name="路径 2335" d="M255.374,64.959l1.1-.363c.367,1.106.717,2.224,1.04,3.323l-1.107.326c-.32-1.086-.666-2.192-1.028-3.285Z" transform="translate(23.293 5.892)" fill="#e6e6e6"/>
    <path id="路径_2336" data-name="路径 2336" d="M318.076,94.3a5.781,5.781,0,0,0-5.671-4.432c-3.839.042-8.485.993-7.438,5.527C306.7,102.9,319.1,135.5,319.1,135.5l-30.3,3.751s-23.66-3.462-16.158,4.617,17.312,3.462,17.312,3.462,38.952,1.047,38.952-5.482c0-1.731-.322-4.046-1.563-9.178Z" transform="translate(24.735 8.197)" fill="#ffb8b8"/>
    <circle id="椭圆_23" data-name="椭圆 23" cx="15.004" cy="15.004" r="15.004" transform="translate(304.887 62.621)" fill="#ffb8b8"/>
    <path id="路径_2337" data-name="路径 2337" d="M304,79.013s-1.154,11.541,2.885,16.158H284.955s5.194-4.617,1.154-13.85S304,79.013,304,79.013Z" transform="translate(25.991 6.98)" fill="#ffb8b8"/>
    <path id="路径_2338" data-name="路径 2338" d="M319.053,121.67c-.41,1.8-.819,3.387-1.223,4.772v.006c-1.529,5.28-2.937,7.739-3.768,8.829a3.417,3.417,0,0,1-.779.819l-35.2-9.81s1.154-12.119,4.04-15,1.731-18.466,1.731-18.466l9.233-2.885s8.57-.289,14.456-.248c1.847.006,3.428.046,4.4.138a5.716,5.716,0,0,1,.768.11c2.308.577,9.233,19.043,6.348,31.739Z" transform="translate(25.364 8.18)" fill="#ffb8b8"/>
    <path id="路径_2339" data-name="路径 2339" d="M302.653,127.1s-7.79-35.49-10.676-36.644c-2.732-1.093-8.079,1.731-8.079,1.731s9.637-5.482,14.484,34.913Z" transform="translate(25.895 8.228)" fill="#2f2e41"/>
    <path id="路径_2340" data-name="路径 2340" d="M248.89,148.467l19.785-6.2a72.514,72.514,0,0,0-7.39-23.589l-19.785,6.2a44.48,44.48,0,0,1,7.39,23.589Z" transform="translate(22.028 10.825)" fill="#6c63ff"/>
    <path id="路径_2341" data-name="路径 2341" d="M315.367,126.443v.006c-1.529,5.28-2.937,7.739-3.768,8.829-2.02-11.513-6.186-36.159-6.521-45.594,1.847.006,3.428.046,4.4.138.381,7.156,3.376,19.505,5.892,36.621Z" transform="translate(27.827 8.18)" fill="#2f2e41"/>
    <path id="路径_2342" data-name="路径 2342" d="M282.445,116.881s4.905,7.213,8.945,6.636,26.672,1.9,27.763,5.854l-6.411,22.423v8.079s8.2,6.335,9.023,23.8a59.314,59.314,0,0,1-2.859,20.854l-2.7,8.441s-2.885,15,.577,21.352,1.731,20.2,1.731,20.2,30.873,42.992,13.561,47.031-34.913,11.253-35.49.289-4.04-85.407-4.04-85.407,3.462,83.675-9.81,85.407-38.664,13.85-39.818-.577,29.431-133.3,29.431-133.3-.577-17.889,9.233-24.814l2.308-9.233s-6.636-13.561-1.443-17.024Z" transform="translate(22.154 10.661)" fill="#2f2e41"/>
    <path id="路径_2343" data-name="路径 2343" d="M294.278,95.888a5.781,5.781,0,0,0-5.671-4.432c-3.839.042-8.485.993-7.438,5.527,1.731,7.5,9.81,42.7,9.81,42.7L265.01,140.84s-23.66-3.462-16.158,4.617,17.312,3.462,17.312,3.462,28.565,4.328,33.182-.289l.138-.137a15.051,15.051,0,0,0,4.07-14.235Z" transform="translate(22.564 8.342)" fill="#ffb8b8"/>
    <path id="路径_2344" data-name="路径 2344" d="M281.518,104.189l-3.174,16.446v1.914l4.948-15.479Z" transform="translate(25.388 9.503)" fill="#2f2e41"/>
    <path id="路径_2345" data-name="路径 2345" d="M309.7,299.007s1.377,15.271-3.053,16.7-24.264-.168-19.359,9.007,43.5,4.583,41.835-.369-9.275-28.145-9.275-28.145Zm-49.628,1.154s1.377,15.271-3.053,16.7-24.264-.168-19.359,9.007,43.5,4.583,41.835-.369-9.275-28.145-9.275-28.145Zm43.7-250.89c-9.585,0-17.355,10.769-17.355,24.053V90.2h4.156l2.406-6.253-.6,6.253h26.716l2.188-5.685-.547,5.685h3.008V76.95c0-15.287-8.941-27.679-19.971-27.679Z" transform="translate(21.606 4.494)" fill="#2f2e41"/>
    <path id="路径_2346" data-name="路径 2346" d="M301.878,53.081a11.367,11.367,0,0,0-8.969-4.577h-.426c-8.2,0-14.855,7.424-14.855,16.582h2.749l.444-3.379.651,3.379h16.3l1.366-2.859-.341,2.859h3.208q2.245,11.15-6.452,22.3h5.464l2.732-5.718-.683,5.718h10.416l2.049-13.151c0-9.849-5.723-18.2-13.657-21.154Z" transform="translate(25.323 4.424)" fill="#2f2e41"/>
    <path id="路径_2347" data-name="路径 2347" d="M380.086,319.31c-.132-.216-3.255-5.43-4.338-16.257-.993-9.933-.354-26.676,8.329-50.031,16.45-44.245-3.791-79.944-4-80.3l1-.579c.052.09,5.275,9.192,8.361,23.685a103.331,103.331,0,0,1-4.28,57.6c-16.422,44.169-4.213,65.078-4.088,65.285Z" transform="translate(34.241 15.702)" fill="#3f3d56"/>
    <g id="组_18" data-name="组 18" transform="translate(400.393 170.823)">
      <circle id="椭圆_24" data-name="椭圆 24" cx="7.502" cy="7.502" r="7.502" fill="#6c63ff"/>
      <circle id="椭圆_25" data-name="椭圆 25" cx="7.502" cy="7.502" r="7.502" transform="translate(23.66 27.699)" fill="#6c63ff"/>
      <circle id="椭圆_26" data-name="椭圆 26" cx="7.502" cy="7.502" r="7.502" transform="translate(7.502 46.165)" fill="#6c63ff"/>
      <circle id="椭圆_27" data-name="椭圆 27" cx="7.502" cy="7.502" r="7.502" transform="translate(27.122 61.746)" fill="#6c63ff"/>
      <circle id="椭圆_28" data-name="椭圆 28" cx="7.502" cy="7.502" r="7.502" transform="translate(1.731 85.983)" fill="#6c63ff"/>
    </g>
    <path id="路径_2348" data-name="路径 2348" d="M387.113,309.963s-7.5-18.466,15-32.316Zm-9.226-.335s-3.414-19.637-29.84-19.469Z" transform="translate(31.746 25.325)" fill="#3f3d56"/>
    <path id="路径_2349" data-name="路径 2349" d="M154.333,306.2H487.881v1.155H154.333Z" transform="translate(14.077 27.93)" fill="#3f3d56"/>
  </g>
</svg>
