<svg xmlns="http://www.w3.org/2000/svg" width="422.196" height="347.213" viewBox="0 0 422.196 347.213">
  <g id="组_27" data-name="组 27" transform="translate(0 10.535)">
    <rect id="矩形_43" data-name="矩形 43" width="421.983" height="0.9" transform="translate(0 335.513)" fill="#3f3d56"/>
    <path id="路径_2414" data-name="路径 2414" d="M406.023,180.568h-1.8v-49.3a28.531,28.531,0,0,0-28.531-28.531H271.25a28.531,28.531,0,0,0-28.531,28.531V401.715a28.531,28.531,0,0,0,28.531,28.531H375.691a28.531,28.531,0,0,0,28.531-28.531V215.658h1.8Z" transform="translate(-192.401 -93.568)" fill="#3f3d56"/>
    <path id="路径_2415" data-name="路径 2415" d="M407.776,140.542V410.587A21.308,21.308,0,0,1,386.468,431.9H281.521a21.3,21.3,0,0,1-21.3-21.307V140.542a21.305,21.305,0,0,1,21.307-21.308h12.732a10.119,10.119,0,0,0,9.374,13.946h59.833a10.117,10.117,0,0,0,9.369-13.946h13.635a21.308,21.308,0,0,1,21.308,21.307Z" transform="translate(-202.026 -102.639)" fill="#fff"/>
    <circle id="椭圆_34" data-name="椭圆 34" cx="27.901" cy="27.901" r="27.901" transform="translate(77.727 33.331)" fill="#ff6584"/>
    <ellipse id="椭圆_35" data-name="椭圆 35" cx="37.772" cy="18.512" rx="37.772" ry="18.512" transform="translate(135.654 228.882) rotate(-84.369)" fill="#3f3d56"/>
    <path id="路径_2416" data-name="路径 2416" d="M471.22,540.025c-3.014-45,8.64-88.387,8.758-88.82l1.411.385c-.117.431-11.706,43.593-8.709,88.338Z" transform="translate(-317.801 -285.22)" fill="#6c63ff"/>
    <rect id="矩形_44" data-name="矩形 44" width="18.984" height="1.463" transform="translate(157.262 193.893) rotate(-22.51)" fill="#6c63ff"/>
    <rect id="矩形_45" data-name="矩形 45" width="1.463" height="18.985" transform="translate(139.993 188.997) rotate(-56.211)" fill="#6c63ff"/>
    <ellipse id="椭圆_36" data-name="椭圆 36" cx="73.878" cy="36.208" rx="73.878" ry="36.208" transform="translate(75.952 200.741) rotate(-84.369)" fill="#e6e6e6"/>
    <path id="路径_2417" data-name="路径 2417" d="M377.255,428.968c-5.886-87.894,16.875-172.645,17.106-173.49l1.411.385c-.23.844-22.927,85.367-17.058,173.008Z" transform="translate(-265.861 -177.572)" fill="#3f3d56"/>
    <rect id="矩形_46" data-name="矩形 46" width="37.132" height="1.463" transform="translate(118.482 132.952) rotate(-22.51)" fill="#3f3d56"/>
    <rect id="矩形_47" data-name="矩形 47" width="1.463" height="37.132" transform="matrix(0.556, -0.831, 0.831, 0.556, 84.826, 122.146)" fill="#3f3d56"/>
    <ellipse id="椭圆_37" data-name="椭圆 37" cx="101.097" cy="49.547" rx="101.097" ry="49.547" transform="translate(149.711 190.682) rotate(-84.369)" fill="#6c63ff"/>
    <path id="路径_2418" data-name="路径 2418" d="M570.336,370.038c-8.052-120.231,23.084-236.162,23.4-237.319l1.411.385c-.315,1.155-31.386,116.858-23.351,236.837Z" transform="translate(-371.857 -110.056)" fill="#3f3d56"/>
    <rect id="矩形_48" data-name="矩形 48" width="50.812" height="1.463" transform="translate(208.013 98.168) rotate(-22.51)" fill="#3f3d56"/>
    <rect id="矩形_49" data-name="矩形 49" width="1.463" height="50.812" transform="matrix(0.556, -0.831, 0.831, 0.556, 162.003, 82.91)" fill="#3f3d56"/>
    <path id="路径_2419" data-name="路径 2419" d="M259.118,638.987l-.9,50.627c0,11.979,10.436,21.69,22.2,21.69H385.368c11.768,0,22.208-9.711,22.208-21.69l-.9-50.183C353.768,618.923,304.844,620.209,259.118,638.987Z" transform="translate(-200.926 -380.517)" fill="#6c63ff"/>
    <path id="路径_2420" data-name="路径 2420" d="M747.532,260.021l5.586-4.468c-4.34-.479-6.123,1.888-6.852,3.761-3.39-1.408-7.081.437-7.081.437l11.177,4.058A8.458,8.458,0,0,0,747.532,260.021Z" transform="translate(-465.453 -177.579)" fill="#3f3d56"/>
    <path id="路径_2421" data-name="路径 2421" d="M444.129,172.371l5.586-4.468c-4.34-.479-6.123,1.888-6.852,3.761-3.39-1.408-7.081.437-7.081.437l11.177,4.058a8.458,8.458,0,0,0-2.83-3.788Z" transform="translate(-298.584 -129.372)" fill="#3f3d56"/>
    <path id="路径_2422" data-name="路径 2422" d="M939.013,133.266,944.6,128.8c-4.34-.479-6.123,1.888-6.852,3.761-3.39-1.408-7.081.437-7.081.437l11.177,4.058A8.458,8.458,0,0,0,939.013,133.266Z" transform="translate(-570.767 -107.865)" fill="#3f3d56"/>
    <path id="路径_2423" data-name="路径 2423" d="M917.333,517l-.1,7.611a4.967,4.967,0,0,1-6,4.8h0a4.967,4.967,0,0,1-3.442-7.017l2.544-5.272,5.273-38.262L913.59,453.29l9.9-.474,2.105,29.245Z" transform="translate(-557.918 -286.106)" fill="#ffb9b9"/>
    <path id="路径_2424" data-name="路径 2424" d="M679.274,614.481l-9.518,51.248,4.759-.732,17.57-51.614Z" transform="translate(-368.36 -343.15)" fill="#ffb9b9"/>
    <path id="路径_2425" data-name="路径 2425" d="M792.179,616.6l6.04,52.529,5.125-.732,1.281-52.163Z" transform="translate(-435.692 -344.715)" fill="#ffb9b9"/>
    <path id="路径_2426" data-name="路径 2426" d="M917.755,562.436C904.11,573.4,888.133,589.5,872.226,583.5c-16.6-6.259-35.757-6.655-57.333-3.859,5.154-32.324,11.518-62.908,19.768-90.781l27.454,4.393c.425.469-.6,3.008-.183,3.478,7.717,8.691,15.589,15.427,20.345,24.379a118.392,118.392,0,0,0,27.945,34.954Z" transform="translate(-507.092 -305.93)" fill="#e6e6e6"/>
    <path id="路径_2427" data-name="路径 2427" d="M927.279,645.474c-13.644,11.272-42.25,30.089-58.157,23.922-16.6-6.436-36.306-5.931-57.882-3.057q1.536-9.905,3.276-19.685c4.676-26.266,89.92-17.039,101.415-7.037Z" transform="translate(-505.083 -383.294)" fill="#e6e6e6" opacity="0.5"/>
    <path id="路径_2428" data-name="路径 2428" d="M927.845,432.432c-5.133-1.5-10.366-.756-15.668,1.549l1.921-14.434a6.04,6.04,0,0,1,5.261-6.729h0a6.04,6.04,0,0,1,6.729,5.261Z" transform="translate(-560.598 -264.083)" fill="#2f2e41"/>
    <circle id="椭圆_38" data-name="椭圆 38" cx="10.25" cy="10.25" r="10.25" transform="translate(333.608 117.588)" fill="#ffb9b9"/>
    <path id="路径_2429" data-name="路径 2429" d="M909.8,400.58l-22.512-5.308c3.342-4.8,2.658-10.436,0-16.472l10.982-2.2a38.488,38.488,0,0,0,4.759,10.982Z" transform="translate(-546.911 -244.19)" fill="#ffb9b9"/>
    <path id="路径_2430" data-name="路径 2430" d="M885.828,449.082l-27.82-4.027.925-5.21c-.439-13.574,1.8-24.684,6.03-33.958l24.526,1.464h0a18.228,18.228,0,0,1,5.27,21.637l-8.564,16.8Z" transform="translate(-530.805 -260.296)" fill="#2f2e41"/>
    <path id="路径_2431" data-name="路径 2431" d="M794.151,810.439c-1.284.586-2.359-4.161-3.442-3.1-3.029,2.977-7.667,3.625-11.71,2.325l1.415-.016a1.893,1.893,0,0,1-1.193-2.467h0a1.894,1.894,0,0,1,1.314-1.172l3.221-.805,5.058-8.9,5.512-.7.139.228a14.213,14.213,0,0,1,1.523,11.622C795.529,808.932,794.905,810.095,794.151,810.439Z" transform="translate(-487.351 -474.643)" fill="#2f2e41"/>
    <path id="路径_2432" data-name="路径 2432" d="M929.182,810.439c-1.284.586-2.359-4.161-3.442-3.1-3.029,2.977-7.667,3.625-11.71,2.325l1.415-.016a1.893,1.893,0,0,1-1.193-2.467h0a1.893,1.893,0,0,1,1.314-1.172l3.221-.805,5.058-8.9,5.512-.7.139.228a14.213,14.213,0,0,1,1.523,11.622C930.56,808.932,929.937,810.095,929.182,810.439Z" transform="translate(-561.617 -474.642)" fill="#2f2e41"/>
    <path id="路径_2433" data-name="路径 2433" d="M893.036,389.275h-.263c-4.95-4.289-9.251-9.1-5.778-15.117-2.946-7.478-6.231-15.243-6.032-20.047a14.088,14.088,0,0,0-3.2-9.795c-3.131-3.657-3.827-5.29-9.545-3.907h0a10.834,10.834,0,0,1,11.227-10.977l3.572.13c2.733.1,11.466,1.216,13.341,3.02a8.7,8.7,0,0,1,2.49,7.315,8.555,8.555,0,0,0,3.1,7.822c4.812,4.975,6.8,10.138,4.068,15.612-2.059,5.8-1.961,10.566,3.351,12.859h0C911.1,382.81,899.878,389.275,893.036,389.275Z" transform="translate(-536.421 -218.242)" fill="#2f2e41"/>
    <ellipse id="椭圆_39" data-name="椭圆 39" cx="3.502" cy="7.145" rx="3.502" ry="7.145" transform="matrix(0.734, -0.679, 0.679, 0.734, 291.421, 194.764)" fill="#3f3d56"/>
    <circle id="椭圆_40" data-name="椭圆 40" cx="10.273" cy="10.273" r="10.273" transform="translate(302.798 159.798)" fill="#6c63ff"/>
    <path id="路径_2434" data-name="路径 2434" d="M832.412,524.523a54.121,54.121,0,0,1-12.749-8.089c-7.774-6.721-13.419-16.368-13.839-26.793-.4-10,3.837-19.411,8.321-28.1q.846-1.641,1.71-3.272c.219-.415.9-.136.678.282-4.652,8.829-9.534,18.16-9.975,28.341-.465,10.731,4.778,20.961,12.58,28.1a52.772,52.772,0,0,0,13.515,8.84" transform="translate(-502.09 -288.99)" fill="#3f3d56"/>
    <rect id="矩形_50" data-name="矩形 50" width="0.489" height="6.873" transform="translate(308.675 169.899) rotate(-13.008)" fill="#3f3d56"/>
    <ellipse id="椭圆_41" data-name="椭圆 41" cx="3.502" cy="7.145" rx="3.502" ry="7.145" transform="translate(310.961 210.715) rotate(-7.135)" fill="#3f3d56"/>
    <path id="路径_2435" data-name="路径 2435" d="M845.488,501.306l-1.019,7.543a4.968,4.968,0,0,1-6.537,4.032h0a4.967,4.967,0,0,1-2.564-7.384l3.165-4.924,9.883-37.338,1.1-25.624,9.884.732-1.464,29.284Z" transform="translate(-517.919 -277.744)" fill="#ffb9b9"/>
    <path id="路径_2436" data-name="路径 2436" d="M873.341,424.76c-4.912-2.113-10.2-2.01-15.74-.366l3.661-14.093a6.04,6.04,0,0,1,6.04-6.04h0a6.04,6.04,0,0,1,6.04,6.04Z" transform="translate(-530.582 -259.402)" fill="#2f2e41"/>
  </g>
</svg>
