<svg xmlns="http://www.w3.org/2000/svg" width="502.591" height="304.504" viewBox="0 0 502.591 304.504">
  <g id="组_28" data-name="组 28" transform="translate(0 0.005)">
    <circle id="椭圆_42" data-name="椭圆 42" cx="25.901" cy="25.901" r="25.901" transform="translate(15.707 14.26)" fill="#ff6584"/>
    <ellipse id="椭圆_43" data-name="椭圆 43" cx="249.998" cy="10.135" rx="249.998" ry="10.135" transform="translate(0 284.229)" fill="#e6e6e6"/>
    <circle id="椭圆_44" data-name="椭圆 44" cx="63.625" cy="63.625" r="63.625" transform="translate(0 40.098)" fill="#6c63ff"/>
    <path id="路径_2437" data-name="路径 2437" d="M113.779,368.426H100.747L106.688,167.2Z" transform="translate(-44.021 -73.06)" fill="#3f3d56"/>
    <path id="路径_2438" data-name="路径 2438" d="M112,219.913l13.99-19.356L111.81,224.7l-1.533-2.683Z" transform="translate(-48.185 -87.635)" fill="#3f3d56"/>
    <path id="路径_2439" data-name="路径 2439" d="M99.761,254.63l-13.99-19.356,14.182,24.147,1.533-2.683Z" transform="translate(-37.477 -102.804)" fill="#3f3d56"/>
    <path id="路径_2440" data-name="路径 2440" d="M817.392,368.8H804.361L810.3,167.577Z" transform="translate(-351.462 -73.224)" fill="#3f3d56"/>
    <path id="路径_2441" data-name="路径 2441" d="M815.616,220.289l13.99-19.356L815.424,225.08l-1.533-2.683Z" transform="translate(-355.626 -87.799)" fill="#3f3d56"/>
    <path id="路径_2442" data-name="路径 2442" d="M803.375,255.006l-13.99-19.356L803.567,259.8l1.533-2.683Z" transform="translate(-344.918 -102.968)" fill="#3f3d56"/>
    <circle id="椭圆_45" data-name="椭圆 45" cx="118.525" cy="118.525" r="118.525" transform="translate(139.948 58.493)" fill="#3f3d56"/>
    <circle id="椭圆_46" data-name="椭圆 46" cx="108.713" cy="108.713" r="108.713" transform="translate(149.76 68.305)" fill="#fff"/>
    <circle id="椭圆_47" data-name="椭圆 47" cx="14.521" cy="14.521" r="14.521" transform="translate(243.56 162.889)" fill="#3f3d56"/>
    <rect id="矩形_51" data-name="矩形 51" width="6.279" height="11.774" transform="translate(254.941 73.8)" fill="#3f3d56"/>
    <rect id="矩形_52" data-name="矩形 52" width="6.279" height="11.774" transform="translate(254.941 269.248)" fill="#3f3d56"/>
    <rect id="矩形_53" data-name="矩形 53" width="6.279" height="11.774" transform="translate(166.244 174.271) rotate(90)" fill="#3f3d56"/>
    <rect id="矩形_54" data-name="矩形 54" width="6.279" height="11.774" transform="translate(361.692 174.271) rotate(90)" fill="#3f3d56"/>
    <path id="路径_2443" data-name="路径 2443" d="M450.924,316.764l5.366-12.271,67.243,37.242Z" transform="translate(-197.029 -133.049)" fill="#3f3d56"/>
    <rect id="矩形_55" data-name="矩形 55" width="30.612" height="35.322" transform="translate(243.167 29.843)" fill="#3f3d56"/>
    <ellipse id="椭圆_48" data-name="椭圆 48" cx="35.322" cy="9.812" rx="35.322" ry="9.812" transform="translate(223.152 20.032)" fill="#3f3d56"/>
    <path id="路径_2444" data-name="路径 2444" d="M721.353,529.151l-1.962,2.747s-9.027,10.6-9.419,5.495,6.672-8.634,6.672-8.634l3.925-2.355Z" transform="translate(-396.75 -331.136)" fill="#ffb8b8"/>
    <path id="路径_2445" data-name="路径 2445" d="M827.231,547.383l1.643,2.949s5.714,12.693.935,10.864-4.948-9.725-4.948-9.725l-.449-4.555Z" transform="translate(-446.76 -340.099)" fill="#ffb8b8"/>
    <circle id="椭圆_49" data-name="椭圆 49" cx="11.95" cy="11.95" r="11.95" transform="translate(359.685 131.087)" fill="#2f2e41"/>
    <path id="路径_2446" data-name="路径 2446" d="M811.751,607.5l1.57,10.2v3.14h9.027v-3.924s.392-7.064-1.177-9.027S811.751,607.5,811.751,607.5Z" transform="translate(-441.228 -366.309)" fill="#ffb8b8"/>
    <path id="路径_2447" data-name="路径 2447" d="M783.173,607.5l1.57,10.2v3.14h9.027v-3.924s.392-7.064-1.177-9.027S783.173,607.5,783.173,607.5Z" transform="translate(-428.741 -366.309)" fill="#ffb8b8"/>
    <path id="路径_2448" data-name="路径 2448" d="M792.464,462.384s-3.472,1.83-1.1,5.992S807.648,515.6,807.648,515.6l8.027-2.279L808.6,486.09l-4.053-17.118Z" transform="translate(-431.958 -303.163)" fill="#6c63ff"/>
    <circle id="椭圆_50" data-name="椭圆 50" cx="9.027" cy="9.027" r="9.027" transform="translate(361.3 137.379)" fill="#ffb8b8"/>
    <path id="路径_2449" data-name="路径 2449" d="M811.412,442.063l-1.177,18.446-8.242-5.887s2.747-10.989,1.962-11.774Z" transform="translate(-436.965 -294.284)" fill="#ffb8b8"/>
    <path id="路径_2450" data-name="路径 2450" d="M804,466.421l-8.879-6.575s-4.073-1.667-5.25.3-7.064,31-3.925,36.5c0,0,16.876,3.532,20.408,1.57l1.57-10.2s1.962-6.279-1.177-10.2Z" transform="translate(-429.557 -301.765)" fill="#6c63ff"/>
    <path id="路径_2451" data-name="路径 2451" d="M765.527,461.036s-3.14-2.355-5.887,1.57-35.715,34.93-35.715,34.93l5.495,6.28,21.586-18.054,13.736-10.989Z" transform="translate(-402.853 -302.268)" fill="#6c63ff"/>
    <path id="路径_2452" data-name="路径 2452" d="M804.28,526.6s-19.427-3.728-21.389-.981l-.392,4.317s-4.317,8.242-1.962,21.586.785,21.586.785,21.586,10.6-1.177,18.446,0,9.027,0,9.027,0Z" transform="translate(-427.282 -330.353)" fill="#2f2e41"/>
    <path id="路径_2453" data-name="路径 2453" d="M823.133,628.868l-11.382.392,3.925,29.435s-3.14,12.559.392,13.344a39.818,39.818,0,0,0,7.457.785s3.532,3.532,7.457,3.14a21.978,21.978,0,0,0,7.457-2.355,2.439,2.439,0,0,0-1.962-3.14c-2.747-.785-10.2-3.14-11.774-11.381Z" transform="translate(-441.228 -375.907)" fill="#2f2e41"/>
    <path id="路径_2454" data-name="路径 2454" d="M794.555,628.868l-11.382.392L787.1,658.7s-3.14,12.559.392,13.344a39.818,39.818,0,0,0,7.457.785s3.532,3.532,7.457,3.14a21.978,21.978,0,0,0,7.457-2.355,2.439,2.439,0,0,0-1.962-3.14c-2.747-.785-10.2-3.14-11.774-11.382Z" transform="translate(-428.741 -375.907)" fill="#2f2e41"/>
    <circle id="椭圆_51" data-name="椭圆 51" cx="4.945" cy="4.945" r="4.945" transform="translate(370.87 125.515)" fill="#2f2e41"/>
    <path id="路径_2455" data-name="路径 2455" d="M829.423,402.709a4.946,4.946,0,0,0-4.43-4.918,4.945,4.945,0,1,1,0,9.837A4.946,4.946,0,0,0,829.423,402.709Z" transform="translate(-447.015 -274.927)" fill="#2f2e41"/>
    <ellipse id="椭圆_52" data-name="椭圆 52" cx="8.242" cy="4.945" rx="8.242" ry="4.945" transform="translate(362.003 135.559)" fill="#2f2e41"/>
    <path id="路径_2456" data-name="路径 2456" d="M967.7,203.33a25.156,25.156,0,0,0-49.355-5.3c-.3-.011-.609-.023-.917-.023a25.16,25.16,0,0,0-24.135,18.063,17.778,17.778,0,0,0-21.1,5.252h78.469A17.015,17.015,0,0,0,967.715,203.7Q967.708,203.516,967.7,203.33Z" transform="translate(-467.638 -179.599)" fill="#e6e6e6"/>
    <circle id="椭圆_53" data-name="椭圆 53" cx="6.757" cy="6.757" r="6.757" transform="translate(427.704 63.16)" fill="#e6e6e6"/>
    <circle id="椭圆_54" data-name="椭圆 54" cx="5.626" cy="5.626" r="5.626" transform="translate(449.236 48.361)" fill="#e6e6e6"/>
    <circle id="椭圆_55" data-name="椭圆 55" cx="6.757" cy="6.757" r="6.757" transform="translate(475.564 77.8)" fill="#e6e6e6"/>
    <circle id="椭圆_56" data-name="椭圆 56" cx="6.757" cy="6.757" r="6.757" transform="translate(424.326 108.768)" fill="#e6e6e6"/>
    <circle id="椭圆_57" data-name="椭圆 57" cx="6.757" cy="6.757" r="6.757" transform="translate(475.564 147.618)" fill="#e6e6e6"/>
    <path id="路径_2457" data-name="路径 2457" d="M969.44,678.425c0-.073.011-.145.011-.219a10.668,10.668,0,0,0-21.294-.558c-.034,0-.068-.005-.1-.005a6.757,6.757,0,1,0,4.13,12.1,11.634,11.634,0,1,0,17.256-11.315Z" transform="translate(-497.828 -393.766)" fill="#e6e6e6"/>
    <circle id="椭圆_58" data-name="椭圆 58" cx="2.815" cy="2.815" r="2.815" transform="translate(485.699 124.533)" fill="#e6e6e6"/>
    <circle id="椭圆_59" data-name="椭圆 59" cx="2.815" cy="2.815" r="2.815" transform="translate(467.681 56.967)" fill="#e6e6e6"/>
    <circle id="椭圆_60" data-name="椭圆 60" cx="2.815" cy="2.815" r="2.815" transform="translate(458.109 126.785)" fill="#e6e6e6"/>
    <circle id="椭圆_61" data-name="椭圆 61" cx="2.815" cy="2.815" r="2.815" transform="translate(460.361 123.97)" fill="#e6e6e6"/>
    <circle id="椭圆_62" data-name="椭圆 62" cx="2.815" cy="2.815" r="2.815" transform="translate(462.051 121.155)" fill="#e6e6e6"/>
    <circle id="椭圆_63" data-name="椭圆 63" cx="2.815" cy="2.815" r="2.815" transform="translate(455.294 144.803)" fill="#e6e6e6"/>
    <circle id="椭圆_64" data-name="椭圆 64" cx="2.815" cy="2.815" r="2.815" transform="translate(496.96 176.334)" fill="#e6e6e6"/>
    <circle id="椭圆_65" data-name="椭圆 65" cx="2.815" cy="2.815" r="2.815" transform="translate(436.713 178.023)" fill="#e6e6e6"/>
    <circle id="椭圆_66" data-name="椭圆 66" cx="2.815" cy="2.815" r="2.815" transform="translate(440.092 91.313)" fill="#e6e6e6"/>
    <circle id="椭圆_67" data-name="椭圆 67" cx="2.815" cy="2.815" r="2.815" transform="translate(453.042 141.988)" fill="#e6e6e6"/>
    <circle id="椭圆_68" data-name="椭圆 68" cx="2.815" cy="2.815" r="2.815" transform="translate(450.226 137.483)" fill="#e6e6e6"/>
  </g>
</svg>
