<svg xmlns="http://www.w3.org/2000/svg" width="520.625" height="330.927" viewBox="0 0 520.625 330.927">
  <g id="组_26" data-name="组 26" transform="translate(-673 -188.26)">
    <g id="iconset-publish-share" transform="translate(673 188.26)">
      <path id="路径_2350" data-name="路径 2350" d="M434.668,261.317l-50.5-87.5a1.607,1.607,0,0,0-2.791,0l-50.518,87.5a1.607,1.607,0,0,0,1.4,2.435h15.07a1.617,1.617,0,0,1,1.612,1.612v18.694a1.607,1.607,0,0,0,1.6,1.612H370.2a1.612,1.612,0,0,0,1.612-1.612v-9.045a1.607,1.607,0,0,1,1.607-1.607h18.694a1.612,1.612,0,0,1,1.612,1.607v9.025a1.612,1.612,0,0,0,1.612,1.612H415a1.627,1.627,0,0,0,1.617-1.612V265.345a1.612,1.612,0,0,1,1.612-1.612h15.07a1.612,1.612,0,0,0,1.374-2.416ZM364.253,271a1.627,1.627,0,0,1-1.145.487h-7.092a1.612,1.612,0,0,1,0-3.224h7.092a1.607,1.607,0,0,1,1.612,1.612A1.627,1.627,0,0,1,364.253,271Zm46.4,0a1.6,1.6,0,0,1-1.14.487h-7.087a1.612,1.612,0,0,1,0-3.224h7.087a1.607,1.607,0,0,1,1.14,2.752Z" transform="translate(47.722 24.971)" fill="#f2f2f2"/>
      <path id="路径_2351" data-name="路径 2351" d="M87.98,122.467a36.252,36.252,0,0,0,2.81-4.13l-19.809-3.254,21.431.161a36.126,36.126,0,0,0,.7-28.605l-28.737,14.9,26.5-19.483a36.106,36.106,0,1,0-59.631,40.427,35.99,35.99,0,0,0-4.116,6.585l25.688,13.336-27.407-9.2a36.135,36.135,0,0,0,5.845,33.9,35.863,35.863,0,0,0-6.473,12.883,359.7,359.7,0,0,0,17,40.831,35.745,35.745,0,0,0,11.2,4.1,12.522,12.522,0,0,0-.711,4.194,11.909,11.909,0,0,0,1.52,6.03,11.69,11.69,0,0,0-1.539,5.143A222.057,222.057,0,0,0,66.91,262.207a11.081,11.081,0,0,0-1.188-2.922,12.376,12.376,0,0,0,0-12.06,12.376,12.376,0,0,0,0-12.06,11.909,11.909,0,0,0,1.568-6.03,12.366,12.366,0,0,0-.731-4.252A36.106,36.106,0,0,0,87.99,167.131a36.1,36.1,0,0,0,0-44.644Z" transform="translate(3.393 9.255)" fill="#f2f2f2"/>
      <path id="路径_2352" data-name="路径 2352" d="M461.033,146.391l-1.461-.239H461a61.818,61.818,0,0,0-2.961-16.224l-5.095,2.645,4.793-3.536A62.169,62.169,0,0,0,434,97.9a36.238,36.238,0,0,0-14.178,55.647,36.108,36.108,0,0,0-4.116,6.6l25.717,13.394-27.407-9.22a36.277,36.277,0,0,0,5.845,33.978,36.243,36.243,0,0,0,16.024,56.388c1.948-4.622,3.843-9.454,5.616-14.422,1.568-4.384,3.064-8.85,4.471-13.36a410.584,410.584,0,0,0,10.306-40.212c3.117-15.45,4.871-28.951,4.871-37.5-.049-.94-.073-1.865-.112-2.8Z" transform="translate(59.48 14.131)" fill="#f2f2f2"/>
      <ellipse id="椭圆_29" data-name="椭圆 29" cx="259.119" cy="12.177" rx="259.119" ry="12.177" transform="translate(0 306.574)" fill="#3f3d56"/>
      <g id="组_19" data-name="组 19" transform="translate(80.853 0)">
        <path id="路径_2353" data-name="路径 2353" d="M56.456,16.624l-7.559,4.8,4.588-8.348a7.476,7.476,0,0,0-4.569-1.632h-.122a8.811,8.811,0,0,1-1.568-.112l-2.562,1.622,1.1-2a9.118,9.118,0,0,1-4.481-3.409L36.7,10.467l2.913-5.275A13.423,13.423,0,0,0,29.336,0C24.568,0,20.32,2.84,17.578,7.257a8.767,8.767,0,0,1-7.793,4.189H9.532C4.267,11.446,0,17.417,0,24.777S4.267,38.108,9.532,38.108a7.165,7.165,0,0,0,3.317-.828,13.758,13.758,0,0,1,11.539-.229,12.035,12.035,0,0,0,9.81,0,13.769,13.769,0,0,1,11.431.219,7.17,7.17,0,0,0,3.288.813c5.265,0,9.532-5.967,9.532-13.331a16.935,16.935,0,0,0-1.992-8.129Z" transform="translate(0 0)" fill="#f2f2f2"/>
        <path id="路径_2354" data-name="路径 2354" d="M42.209,33.939a14.076,14.076,0,0,0-8.168.891,12.026,12.026,0,0,1-9.8,0,13.76,13.76,0,0,0-11.539.224,7.111,7.111,0,0,1-3.317.833C4.7,35.887.813,31.177,0,24.962a8.977,8.977,0,0,0,2.338-2.523C5.08,18.021,9.327,15.186,14.1,15.186s8.967,2.8,11.69,7.174a9.02,9.02,0,0,0,7.769,4.267h.122c3.741-.024,6.965,2.961,8.533,7.311Z" transform="translate(0 2.192)" opacity="0.03"/>
      </g>
      <path id="路径_2355" data-name="路径 2355" d="M375.967,84.349,372.2,86.74l2.289-4.16a3.721,3.721,0,0,0-2.284-.813h-.058a4.684,4.684,0,0,1-.784-.058l-1.276.809.546-.974a4.579,4.579,0,0,1-2.236-1.7L366.109,81.3l1.461-2.625a6.7,6.7,0,0,0-5.143-2.611,6.976,6.976,0,0,0-5.845,3.619,4.384,4.384,0,0,1-3.9,2.09h-.127c-2.625,0-4.754,2.976-4.754,6.648s2.128,6.639,4.754,6.639a3.565,3.565,0,0,0,1.656-.414,6.868,6.868,0,0,1,5.757-.112,6,6,0,0,0,4.871,0,6.858,6.858,0,0,1,5.7.112,3.551,3.551,0,0,0,1.637.4c2.625,0,4.754-2.976,4.754-6.648a8.484,8.484,0,0,0-.969-4.057Z" transform="translate(50.201 10.98)" fill="#f2f2f2"/>
      <path id="路径_2356" data-name="路径 2356" d="M368.866,93a7.033,7.033,0,0,0-4.077.443,5.981,5.981,0,0,1-2.435.516,6.045,6.045,0,0,1-2.435-.526,6.819,6.819,0,0,0-5.752.112,3.58,3.58,0,0,1-1.656.414c-2.333,0-4.276-2.353-4.681-5.45A4.5,4.5,0,0,0,349,87.251a6.545,6.545,0,0,1,11.69-.039,4.5,4.5,0,0,0,3.9,2.128h.063c1.817,0,3.424,1.486,4.218,3.658Z" transform="translate(50.205 12.071)" opacity="0.03"/>
      <g id="组_20" data-name="组 20" transform="translate(381.373 13.638)">
        <path id="路径_2357" data-name="路径 2357" d="M1.607,13.36,7.667,17.2,3.989,10.516a5.986,5.986,0,0,1,3.663-1.31h.1a7.209,7.209,0,0,0,1.257-.1l2.051,1.305-.877-1.6a7.306,7.306,0,0,0,3.59-2.757l3.672,2.328L15.124,4.164A10.743,10.743,0,0,1,23.355,0c3.819,0,7.223,2.275,9.42,5.816A7.043,7.043,0,0,0,39,9.171h.209c4.218,0,7.632,4.783,7.632,10.681s-3.409,10.681-7.632,10.681a5.752,5.752,0,0,1-2.664-.662,11.013,11.013,0,0,0-9.254-.185,9.639,9.639,0,0,1-7.861,0,11.017,11.017,0,0,0-9.162.18,5.738,5.738,0,0,1-2.63.648C3.419,30.515,0,25.732,0,19.833A13.56,13.56,0,0,1,1.607,13.36Z" transform="translate(0 0)" fill="#f2f2f2"/>
        <path id="路径_2358" data-name="路径 2358" d="M11.382,27.192a11.256,11.256,0,0,1,6.541.711,9.639,9.639,0,0,0,7.861,0,11.032,11.032,0,0,1,9.254.18,5.728,5.728,0,0,0,2.664.667c3.746,0,6.863-3.775,7.511-8.767a7.277,7.277,0,0,1-1.87-2.021c-2.2-3.541-5.6-5.811-9.425-5.811S26.739,14.4,24.542,17.9a7.233,7.233,0,0,1-6.225,3.409h-.1c-3,.039-5.582,2.416-6.838,5.884Z" transform="translate(1.643 1.754)" opacity="0.03"/>
      </g>
      <path id="路径_2359" data-name="路径 2359" d="M104.99,284.392c-2.012-3.721.268-8.28,2.888-11.6s5.82-6.775,5.752-11c-.1-6.079-6.551-9.668-11.69-12.888a56.988,56.988,0,0,1-10.5-8.431,15.338,15.338,0,0,1-3.229-4.32c-1.067-2.377-1.037-5.08-.974-7.686q.336-13,1.286-25.99" transform="translate(12.588 29.225)" fill="none" stroke="#3f3d56" stroke-width="4" fill-rule="evenodd"/>
      <path id="路径_2360" data-name="路径 2360" d="M79.8,203.2a9.454,9.454,0,0,1,4.734-7.793l2.119,4.194-.073-5.061a9.352,9.352,0,0,1,3.122-.375,9.478,9.478,0,1,1-9.9,9.035Z" transform="translate(11.516 28.023)" fill="#57b894"/>
      <path id="路径_2361" data-name="路径 2361" d="M94.7,259.849a9.478,9.478,0,1,0-.458-7.632l5.918,4.817-6.512-1.51a9.337,9.337,0,0,0,1.052,4.325Z" transform="translate(13.517 35.512)" fill="#57b894"/>
      <path id="路径_2362" data-name="路径 2362" d="M99.826,244.42a9.478,9.478,0,0,0,3.005-18.6l.049,3.9-2.148-4.252h-.024a9.483,9.483,0,1,0-.882,18.942Z" transform="translate(13.076 32.54)" fill="#57b894"/>
      <path id="路径_2363" data-name="路径 2363" d="M79.694,231.035A9.478,9.478,0,1,0,75.5,213.3l1.676,4.593-3.444-3.312a9.439,9.439,0,0,0-3.064,6.546,9.254,9.254,0,0,0,.239,2.611,9.473,9.473,0,0,0,8.787,7.3Z" transform="translate(10.198 30.612)" fill="#57b894"/>
      <path id="路径_2364" data-name="路径 2364" d="M81.048,205.056c2.187.244,4.315.921,6.512,1.057s4.6-.39,5.991-2.094a29.988,29.988,0,0,0,1.758-3.083,6.731,6.731,0,0,1,2.387-2.25,9.478,9.478,0,1,1-17.719,6.293,9.646,9.646,0,0,1,1.072.078Z" transform="translate(11.544 28.678)" opacity="0.1"/>
      <path id="路径_2365" data-name="路径 2365" d="M79.665,230.35a9.483,9.483,0,0,0,9.016-13.521,6.984,6.984,0,0,0-1.909,1.909,30.239,30.239,0,0,1-1.875,3.132c-1.461,1.734-4,2.3-6.288,2.2s-4.5-.75-6.775-.974c-.312-.029-.633-.049-.974-.058a9.473,9.473,0,0,0,8.806,7.316Z" transform="translate(10.228 31.297)" opacity="0.1"/>
      <path id="路径_2366" data-name="路径 2366" d="M99.749,243.71a9.478,9.478,0,0,0,9.094-13.346,7.632,7.632,0,0,0-2.007,1.948,31.829,31.829,0,0,1-2.055,3.2c-1.6,1.783-4.286,2.435-6.712,2.353-2.348-.049-4.608-.628-6.941-.8a9.488,9.488,0,0,0,8.621,6.653Z" transform="translate(13.153 33.25)" opacity="0.1"/>
      <path id="路径_2367" data-name="路径 2367" d="M94.571,259.083a9.478,9.478,0,0,0,17.276-7.735,9.531,9.531,0,0,0-2.08,1.856,37.116,37.116,0,0,1-2.538,3.366c-1.948,1.9-5.065,2.689-7.852,2.762a41.364,41.364,0,0,1-4.807-.248Z" transform="translate(13.65 36.279)" opacity="0.1"/>
      <path id="路径_2368" data-name="路径 2368" d="M349.782,278.489c-1.461-2.747.2-6.118,2.138-8.567s4.3-5,4.242-8.124c-.068-4.491-4.837-7.14-8.641-9.522a42.028,42.028,0,0,1-7.764-6.244,11.471,11.471,0,0,1-2.387-3.2,13.021,13.021,0,0,1-.716-5.674q.248-9.6.974-19.2" transform="translate(48.589 31.46)" fill="none" stroke="#3f3d56" stroke-width="4" fill-rule="evenodd"/>
      <path id="路径_2369" data-name="路径 2369" d="M331.158,218.5a7.014,7.014,0,0,1,3.5-5.738l1.568,3.1-.049-3.755a7.106,7.106,0,0,1,2.309-.278,7,7,0,1,1-7.306,6.668Z" transform="translate(47.798 30.574)" fill="#57b894"/>
      <path id="路径_2370" data-name="路径 2370" d="M342.167,260.377a7,7,0,1,0-.341-5.635l4.384,3.56-4.807-1.115a6.921,6.921,0,0,0,.765,3.19Z" transform="translate(49.277 36.109)" fill="#57b894"/>
      <path id="路径_2371" data-name="路径 2371" d="M345.936,248.94a7,7,0,0,0,7.306-6.668,6.912,6.912,0,0,0-.6-3.185,7.018,7.018,0,0,0-4.5-3.9l.034,2.888-1.583-3.142a7.009,7.009,0,0,0-.658,14Z" transform="translate(48.967 33.909)" fill="#57b894"/>
      <path id="路径_2372" data-name="路径 2372" d="M331.081,239.073a7,7,0,1,0-3.093-13.1l1.237,3.409-2.547-2.435a6.955,6.955,0,0,0-2.26,4.832,6.818,6.818,0,0,0,.175,1.948,7,7,0,0,0,6.488,5.348Z" transform="translate(46.824 32.486)" fill="#57b894"/>
      <path id="路径_2373" data-name="路径 2373" d="M332.081,219.883c1.612.18,3.185.682,4.807.784a5.224,5.224,0,0,0,4.427-1.549,20.975,20.975,0,0,0,1.3-2.279,5.007,5.007,0,0,1,1.763-1.661,6.992,6.992,0,1,1-13.063,4.647c.239.01.487.029.77.058Z" transform="translate(47.821 31.058)" opacity="0.1"/>
      <path id="路径_2374" data-name="路径 2374" d="M331.057,238.566a7.009,7.009,0,0,0,6.663-9.985,5.251,5.251,0,0,0-1.413,1.408,20.878,20.878,0,0,1-1.383,2.314,5.733,5.733,0,0,1-4.647,1.627c-1.69-.078-3.317-.56-5-.711-.234-.024-.487-.039-.706-.044a7,7,0,0,0,6.488,5.392Z" transform="translate(46.848 32.993)" opacity="0.1"/>
      <path id="路径_2375" data-name="路径 2375" d="M345.9,248.416a7,7,0,0,0,7.306-6.668,6.912,6.912,0,0,0-.6-3.185,5.64,5.64,0,0,0-1.461,1.422,23.982,23.982,0,0,1-1.52,2.357,6.478,6.478,0,0,1-4.958,1.739c-1.792-.044-3.409-.463-5.124-.594a6.994,6.994,0,0,0,6.361,4.929Z" transform="translate(49.007 34.433)" opacity="0.1"/>
      <path id="路径_2376" data-name="路径 2376" d="M342.071,259.81a7,7,0,0,0,12.766-5.708,6.947,6.947,0,0,0-1.539,1.369,28.438,28.438,0,0,1-1.875,2.489,8.778,8.778,0,0,1-5.8,2.036A29.661,29.661,0,0,1,342.071,259.81Z" transform="translate(49.374 36.676)" opacity="0.1"/>
      <path id="路径_2377" data-name="路径 2377" d="M401,287.37c2.012-3.721-.268-8.28-2.888-11.6s-5.845-6.775-5.752-11c.1-6.079,6.551-9.668,11.69-12.888a56.985,56.985,0,0,0,10.506-8.431,15.337,15.337,0,0,0,3.229-4.32c1.067-2.377,1.037-5.08.974-7.686q-.307-13.024-1.281-25.985" transform="translate(56.632 29.656)" fill="none" stroke="#3f3d56" stroke-width="4" fill-rule="evenodd"/>
      <g id="组_25" data-name="组 25" transform="translate(102.882 66.581)">
        <path id="路径_2378" data-name="路径 2378" d="M425.268,206.178a9.469,9.469,0,0,0-4.734-7.793l-2.124,4.2.068-5.08a9.367,9.367,0,0,0-3.122-.375,9.478,9.478,0,1,0,9.912,9.05Z" transform="translate(-44.235 -38.13)" fill="#57b894"/>
        <path id="路径_2379" data-name="路径 2379" d="M410.363,262.829a9.478,9.478,0,1,1,.458-7.632l-5.918,4.817,6.512-1.51A9.337,9.337,0,0,1,410.363,262.829Z" transform="translate(-46.236 -30.639)" fill="#57b894"/>
        <path id="路径_2380" data-name="路径 2380" d="M405.267,247.4a9.478,9.478,0,0,1-3.005-18.6l-.049,3.9,2.172-4.252a9.483,9.483,0,1,1,.882,18.942Z" transform="translate(-45.821 -33.611)" fill="#57b894"/>
        <path id="路径_2381" data-name="路径 2381" d="M425.371,234.014a9.478,9.478,0,1,1,4.194-17.739l-1.676,4.593,3.444-3.312a9.478,9.478,0,0,1-5.962,16.458Z" transform="translate(-42.917 -35.539)" fill="#57b894"/>
        <path id="路径_2382" data-name="路径 2382" d="M423.991,208.035c-2.187.244-4.315.921-6.512,1.057s-4.6-.39-5.991-2.094a29.99,29.99,0,0,1-1.758-3.083,6.731,6.731,0,0,0-2.387-2.25,9.478,9.478,0,1,0,17.719,6.293,10.094,10.094,0,0,0-1.072.078Z" transform="translate(-44.235 -37.474)" opacity="0.1"/>
        <path id="路径_2383" data-name="路径 2383" d="M425.372,233.329a9.483,9.483,0,0,1-9.016-13.521,6.986,6.986,0,0,1,1.909,1.909,30.24,30.24,0,0,0,1.875,3.132c1.461,1.734,4,2.3,6.288,2.2s4.5-.75,6.775-.974c.312-.029.633-.049.974-.058a9.473,9.473,0,0,1-8.806,7.316Z" transform="translate(-42.918 -34.855)" opacity="0.1"/>
        <path id="路径_2384" data-name="路径 2384" d="M405.266,246.689a9.478,9.478,0,0,1-9.094-13.346,7.632,7.632,0,0,1,2.007,1.948,31.818,31.818,0,0,0,2.055,3.2c1.6,1.783,4.286,2.435,6.712,2.353,2.348-.049,4.608-.628,6.941-.8A9.488,9.488,0,0,1,405.266,246.689Z" transform="translate(-45.82 -32.901)" opacity="0.1"/>
        <path id="路径_2385" data-name="路径 2385" d="M410.352,262.063a9.478,9.478,0,0,1-17.252-7.735,9.532,9.532,0,0,1,2.08,1.856,37.12,37.12,0,0,0,2.538,3.366c1.948,1.9,5.065,2.689,7.851,2.762A41.371,41.371,0,0,0,410.352,262.063Z" transform="translate(-46.226 -29.872)" opacity="0.1"/>
        <path id="路径_2386" data-name="路径 2386" d="M89.906,272.106s7.476-.234,9.741-1.836,11.509-3.521,12.069-.974,11.241,12.8,2.8,12.873-19.624-1.315-21.874-2.684-2.732-7.379-2.732-7.379Z" transform="translate(-89.906 -27.891)" fill="#656380"/>
        <path id="路径_2387" data-name="路径 2387" d="M114.653,280.788c-8.446.068-19.624-1.315-21.874-2.684-1.714-1.042-2.4-4.788-2.625-6.517h-.248s.487,6.03,2.723,7.4,13.428,2.752,21.874,2.684c2.435,0,3.278-.886,3.234-2.167-.341.784-1.266,1.266-3.083,1.281Z" transform="translate(-89.906 -27.381)" opacity="0.2"/>
        <path id="路径_2388" data-name="路径 2388" d="M340.25,271.085s4.384-.132,5.684-1.072,6.717-2.055,7.043-.55,6.561,7.472,1.632,7.511-11.456-.765-12.771-1.568-1.588-4.32-1.588-4.32Z" transform="translate(-53.772 -27.794)" fill="#656380"/>
        <path id="路径_2389" data-name="路径 2389" d="M354.677,276.155c-4.929.039-11.456-.77-12.771-1.568-.974-.609-1.4-2.8-1.529-3.8h-.127s.278,3.522,1.588,4.32,7.842,1.612,12.771,1.568c1.422,0,1.914-.516,1.885-1.266-.214.458-.76.74-1.817.75Z" transform="translate(-53.772 -27.497)" opacity="0.2"/>
        <path id="路径_2390" data-name="路径 2390" d="M387.422,273.809s7.476-.234,9.741-1.836,11.509-3.521,12.069-.974,11.241,12.8,2.8,12.873-19.624-1.315-21.874-2.684-2.732-7.379-2.732-7.379Z" transform="translate(-46.963 -27.645)" fill="#656380"/>
        <path id="路径_2391" data-name="路径 2391" d="M412.17,282.49c-8.446.068-19.624-1.315-21.874-2.684-1.714-1.042-2.4-4.788-2.625-6.517h-.248s.487,6.03,2.723,7.4,13.428,2.752,21.874,2.684c2.435,0,3.278-.886,3.234-2.167-.341.784-1.266,1.266-3.083,1.281Z" transform="translate(-46.963 -27.135)" opacity="0.2"/>
        <g id="组_22" data-name="组 22" transform="translate(121.199 250.669) rotate(180)">
          <path id="路径_2392" data-name="路径 2392" d="M64.957,54.082s3.018-39.217-1.207-40.424S44.437,3.4,20.3,5.814c0,0-23.538-12.67-19.917-.6S20.3,14.261,20.3,14.261s28.97,6.033,30.177,10.257-3.621,21.72-1.811,22.324,16.3,7.24,16.3,7.24Z" transform="translate(0 137.487)" fill="#a0616a"/>
          <g id="组_21" data-name="组 21" transform="translate(19.159)">
            <path id="路径_2393" data-name="路径 2393" d="M0,104.925s2.353-56.657,5.974-65.1c3.016-7.036,4.776-29.979,5.28-37.448.1-1.5.152-2.373.152-2.373s9.657,0,10.26,2.413,2.414,28.96,0,37.407,3.079,66.914,3.079,66.914Z" transform="translate(9.647 18.268)" fill="#2f2e41"/>
            <path id="路径_2394" data-name="路径 2394" d="M23.467,14.789s-6.035-1.81-7.242-4.223S-4.9,3.929,1.136.912,25.278,3.326,25.278,3.326s9.657.6,9.053,4.223a35.761,35.761,0,0,1-2.8,8.081Z" transform="translate(0 6.495)" fill="#2f2e41"/>
            <path id="路径_2395" data-name="路径 2395" d="M23.467,14.789s-6.035-1.81-7.242-4.223S-4.9,3.929,1.136.912,25.278,3.326,25.278,3.326s9.657.6,9.053,4.223a35.761,35.761,0,0,1-2.8,8.081Z" transform="translate(16.899)" fill="#2f2e41"/>
            <path id="路径_2396" data-name="路径 2396" d="M0,112.356l8.45-14.48,14.1-50.345s-1.427-46.19.383-46.19,11.467-3.017,12.071,0c.51,2.548,7.27,26.959,3.9,43.207a207.7,207.7,0,0,0-4.217,31.171l-1.493,28.191s6.035,10.86-.6,12.67S0,112.356,0,112.356Z" transform="translate(15.018 12.242)" fill="#2f2e41"/>
          </g>
          <ellipse id="椭圆_30" data-name="椭圆 30" cx="14.485" cy="14.48" rx="14.485" ry="14.48" transform="translate(27.538 217.512)" fill="#a0616a"/>
          <path id="路径_2397" data-name="路径 2397" d="M0,20.585S2.414,1.278,1.811.071,16.3,13.345,16.3,13.345s-5.432,8.447-4.225,12.67Z" transform="translate(40.212 201.754)" fill="#a0616a"/>
          <path id="路径_2398" data-name="路径 2398" d="M46.473,83.924S29.573,95.99,28.97,98.4L16.3,87.544l-2.154,2.563S4.225,80.3,4.225,76.08s-.6-16.894,1.207-20.514S0,6.092,0,6.092,6.035.662,6.639.059s24.745,3.62,24.745,3.62S43.455,4.886,43.455,6.7s-3.621,28.96-2.414,36.2,5.432,41.027,5.432,41.027Z" transform="translate(27.538 119.108)" fill="#d0cde1"/>
          <path id="路径_2399" data-name="路径 2399" d="M10.634,8.12a10.2,10.2,0,0,0,6.183.482c2.857-.827,4.836-3.33,6.971-5.4S28.915-.705,31.726.269A4.651,4.651,0,0,0,32.615,3.7,3.16,3.16,0,0,1,33.4,5.018c.12.776-.532,1.444-.728,2.2-.343,1.332.6,3.155-.558,3.9-.3.2-.691.242-.989.45-1.168.816.129,2.846-.643,4.044a2.47,2.47,0,0,1-.878.732c-5.6,3.267-12.449,3.276-18.933,3.193-.9-.011-2.159-.46-1.9-1.325-1.225.879-2.83-.355-3.817-1.495L2.931,14.39a17.969,17.969,0,0,1-2.47-3.341c-.618-1.181-.754-3,.475-3.51C.022,7.922-1.086,2.512,3.126,3.4c2.447.517,4.846,3.771,7.508,4.718Z" transform="translate(25.202 231.106)" fill="#2f2e41"/>
          <path id="路径_2400" data-name="路径 2400" d="M5.432,25.054l9.657,1.207s9.657-18.7,4.225-21.72S0-.889,0,.317,5.432,25.054,5.432,25.054Z" transform="translate(58.922 176.771)" fill="#d0cde1"/>
        </g>
        <path id="路径_2401" data-name="路径 2401" d="M279.676,110.025,272.425,129.2l-26.149,9.181S230.5,136.625,230.5,145.4c0,6.219,18.846.877,18.846.877l34.475-10.337L294.7,108.988Z" transform="translate(-69.613 -50.85)" fill="#ffb8b8"/>
        <g id="组_24" data-name="组 24" transform="translate(103.668 54.718)">
          <path id="路径_2402" data-name="路径 2402" d="M180.5,106h71.876v61.833H180.5Z" transform="translate(-180.498 -106)" fill="#6c63ff"/>
        </g>
        <path id="路径_2407" data-name="路径 2407" d="M288.835,99.009s-7.251-1.036-10.876,12.437-4.661,14.51-4.661,14.51,21.234,3.109,21.752,2.073,4.661-25.911-6.215-29.02Z" transform="translate(-63.435 -52.293)" fill="#2f2e41"/>
        <ellipse id="椭圆_31" data-name="椭圆 31" cx="13.983" cy="13.992" rx="13.983" ry="13.992" transform="translate(207.272 13.549)" fill="#ffb8b8"/>
        <path id="路径_2408" data-name="路径 2408" d="M277.823,92.833s4.661,11.919,3.107,13.474,19.163,3.628,19.163,3.628,1.554-7.773-4.661-12.437c0,0-2.59-7.773-2.072-9.328s-15.537,4.664-15.537,4.664Z" transform="translate(-62.782 -53.891)" fill="#ffb8b8"/>
        <path id="路径_2409" data-name="路径 2409" d="M272.04,144.473l-6.561,28.294S217.832,272.783,233.887,279.52s30.557,8.81,31.592,7.255,19.68-82.4,19.68-82.4,5.179,86.542,18.127,86.542,34.182-3.628,34.182-3.628L311.055,183.65s3.625-23-11.912-35.434Z" transform="translate(-69.601 -45.729)" fill="#575a89"/>
        <path id="路径_2410" data-name="路径 2410" d="M294.355,155.263c7.757-.436,13.038-54.7,4.143-59.368,0,0-2.072-1.555-6.215,1.036a37.346,37.346,0,0,0-13.983,9.328c-6.215,6.737-9.322,8.81-9.322,8.81s-7.251,2.591-4.661,15.028c1.295,6.219,4.4,16.013,3.166,21.454q19.116,4.147,26.873,3.711Z" transform="translate(-64.812 -52.807)" fill="#ff6584"/>
        <path id="路径_2411" data-name="路径 2411" d="M283.574,121.327,276.323,140.5l-26.149,9.181S234.4,147.927,234.4,156.7c0,6.219,18.846.877,18.846.877l34.475-10.337,10.876-26.947Z" transform="translate(-69.05 -49.219)" fill="#ffb8b8"/>
        <ellipse id="椭圆_32" data-name="椭圆 32" cx="9.063" cy="5.182" rx="9.063" ry="5.182" transform="translate(171.019 234.828)" fill="#2f2e41"/>
        <ellipse id="椭圆_33" data-name="椭圆 33" cx="9.063" cy="5.182" rx="9.063" ry="5.182" transform="translate(240.419 240.55)" fill="#2f2e41"/>
        <path id="路径_2412" data-name="路径 2412" d="M290.442,65.2h0a11.1,11.1,0,0,0-2.144.213,9.392,9.392,0,0,0-4.093-.944h-.372c-7.163,0-12.97,6.486-12.97,14.487h2.4L273.65,76l.568,2.952h2a28.335,28.335,0,0,0-.929,7.258v14.745h3.629l2.1-5.463-.525,5.463H303.82l1.91-4.967-.478,4.967h2.626V89.378c0-13.355-7.807-24.181-17.437-24.181Z" transform="translate(-63.787 -57.277)" fill="#2f2e41"/>
        <path id="路径_2413" data-name="路径 2413" d="M64.957,54.082s3.018-39.217-1.207-40.424S44.437,3.4,20.3,5.814c0,0-23.538-12.67-19.917-.6S20.3,14.261,20.3,14.261s28.97,6.033,30.177,10.257-3.621,21.72-1.811,22.324,16.3,7.24,16.3,7.24Z" transform="translate(108.525 118.613) rotate(180)" fill="#a0616a"/>
      </g>
    </g>
    <g id="组_15" data-name="组 15" transform="translate(905.868 330.801)">
      <line id="直线_6" data-name="直线 6" x2="7.771" y2="7.073" transform="translate(2.27 3.405)" fill="none" stroke="#474477" stroke-miterlimit="10" stroke-width="1.5"/>
      <line id="直线_7" data-name="直线 7" x1="6.112" y2="10.478" transform="translate(10.041)" fill="none" stroke="#474477" stroke-miterlimit="10" stroke-width="1.5"/>
      <line id="直线_8" data-name="直线 8" x1="9.867" y1="0.524" transform="translate(10.041 10.478)" fill="none" stroke="#474477" stroke-miterlimit="10" stroke-width="1.5"/>
      <line id="直线_9" data-name="直线 9" x1="3.493" y1="9.954" transform="translate(10.041 10.478)" fill="none" stroke="#474477" stroke-miterlimit="10" stroke-width="1.5"/>
      <line id="直线_10" data-name="直线 10" y1="4.802" x2="10.041" transform="translate(0 10.478)" fill="none" stroke="#474477" stroke-miterlimit="10" stroke-width="1.5"/>
    </g>
    <ellipse id="椭圆_10" data-name="椭圆 10" cx="2.889" cy="2.889" rx="2.889" ry="2.889" transform="translate(902.127 343.313)" fill="#474477"/>
    <ellipse id="椭圆_7" data-name="椭圆 7" cx="4.1" cy="4.1" rx="4.1" ry="4.1" transform="translate(915.359 347.6)" fill="#474477"/>
    <ellipse id="椭圆_8" data-name="椭圆 8" cx="3.634" cy="3.634" rx="3.634" ry="3.634" transform="translate(918.62 326.261)" fill="#474477"/>
    <ellipse id="椭圆_9" data-name="椭圆 9" cx="1.864" cy="1.864" rx="1.864" ry="1.864" transform="translate(924.397 339.772)" fill="#474477"/>
    <ellipse id="椭圆_11" data-name="椭圆 11" cx="2.795" cy="2.795" rx="2.795" ry="2.795" transform="translate(904.643 330.734)" fill="#474477"/>
    <ellipse id="椭圆_12" data-name="椭圆 12" cx="4.752" cy="4.752" rx="4.752" ry="4.752" transform="translate(910.979 336.325)" fill="#474477"/>
  </g>
</svg>
