<svg xmlns="http://www.w3.org/2000/svg" xmlns:xlink="http://www.w3.org/1999/xlink" width="454.897" height="337.971" viewBox="0 0 454.897 337.971">
  <defs>
    <linearGradient id="linear-gradient" x1="0.5" y1="1" x2="0.5" gradientUnits="objectBoundingBox">
      <stop offset="0" stop-color="gray" stop-opacity="0.251"/>
      <stop offset="0.54" stop-color="gray" stop-opacity="0.122"/>
      <stop offset="1" stop-color="gray" stop-opacity="0.102"/>
    </linearGradient>
    <linearGradient id="linear-gradient-2" x1="0.5" y1="1" x2="0.5" y2="0" xlink:href="#linear-gradient"/>
    <linearGradient id="linear-gradient-3" x1="0.5" y1="0.915" x2="0.5" y2="0.085" xlink:href="#linear-gradient"/>
    <linearGradient id="linear-gradient-4" x1="0.5" y1="1.039" x2="0.5" y2="0.047" xlink:href="#linear-gradient"/>
  </defs>
  <g id="iconset-share" transform="translate(-0.006 -0.419)">
    <g id="组_41" data-name="组 41">
      <path id="路径_2465" data-name="路径 2465" d="M251.181,47.136c-27.141-.939-52.99-9.7-77.673-19.29S124.377,7.641,97.869,2.558C80.831-.709,61.343-1.17,47.618,7.968,34.4,16.774,30.135,31.93,27.841,46.012,26.113,56.6,25.1,67.755,29.829,77.673c3.288,6.886,9.121,12.673,13.151,19.265,14.036,22.951,4.114,51.245-11.092,73.656C24.759,181.1,16.477,191.142,10.97,202.318s-8.035,24.008-3.216,35.444c4.772,11.323,16.149,19.81,28.474,25.786,25.031,12.14,54.516,15.613,83.288,17.583,63.671,4.353,127.677,2.47,191.515.579,23.626-.7,47.353-1.4,70.594-5.062,12.908-2.025,26.231-5.246,35.6-13,11.893-9.867,14.841-26.574,6.869-38.95-13.369-20.754-50.323-25.908-59.678-48.18-5.141-12.262.138-25.916,7.615-37.285,16.036-24.394,42.913-45.794,44.33-73.672.969-19.148-11.952-38.325-31.93-47.387-20.938-9.494-49.979-8.3-65.419,7.418C303.1,41.738,275.147,47.97,251.181,47.136Z" fill="#6c63ff" opacity="0.1"/>
      <path id="路径_2466" data-name="路径 2466" d="M43.588,287.287s8.806-1.409,14.09,4.814c0,0-3.875,3.053-12.212-1.174Z" fill="#6c63ff"/>
      <path id="路径_2467" data-name="路径 2467" d="M42.644,287.153s-5.615,6.928-2.86,14.61c0,0,4.579-1.833,5.078-11.167Z" fill="#6c63ff"/>
      <path id="路径_2468" data-name="路径 2468" d="M37.6,275.78s3.523-6.458,17.613,2.583c0,0-1.879,4.345-8.1,3.992s-7.867-3.17-9.511-6.575Z" fill="#6c63ff"/>
      <path id="路径_2469" data-name="路径 2469" d="M36.689,275.315s-7.309-.839-8.018,15.893c0,0,4.613.965,7.926-4.328s1.933-8.261.092-11.566Z" fill="#6c63ff"/>
      <path id="路径_2470" data-name="路径 2470" d="M32.45,261.971s4.11-11.394,19.022-3.288c0,0-3.405,10.45-17.5,7.163Z" fill="#6c63ff"/>
      <path id="路径_2471" data-name="路径 2471" d="M27.837,244.941s7.754-11.507,21.492-.839c0,0-4.814,10.807-20.318,4.932Z" fill="#6c63ff"/>
      <path id="路径_2472" data-name="路径 2472" d="M26.205,228.737s9.045-10.568,22.666,0c0,0-8.572,9.276-22.645,2.7Z" fill="#6c63ff"/>
      <path id="路径_2473" data-name="路径 2473" d="M24.8,213.02s9.163-11.037,22.2-.587c0,0-10.333,9.746-22.2,3.17Z" fill="#6c63ff"/>
      <path id="路径_2474" data-name="路径 2474" d="M25.618,199.03s9.645-14.212,21.844-4.584c0,0-10.333,12.216-21.844,7.284Z" fill="#6c63ff"/>
      <path id="路径_2475" data-name="路径 2475" d="M27.837,182.705s10.22-14.09,22.079-3.288c0,0-12.094,12.212-22.079,5.871Z" fill="#6c63ff"/>
      <path id="路径_2476" data-name="路径 2476" d="M31.259,168.115s12.094-13.239,22.645-7.968c0,0-12.606,14.061-23.174,11.478Z" fill="#6c63ff"/>
      <path id="路径_2477" data-name="路径 2477" d="M35.486,154.31s13.973-16.208,22.075-10.8c0,0-10.283,12.581-23.064,13.839Z" fill="#6c63ff"/>
      <path id="路径_2478" data-name="路径 2478" d="M41.587,138.245S53.8,125,62.727,128.31c0,0-10.45,13.742-22.779,14.094Z" fill="#6c63ff"/>
      <path id="路径_2479" data-name="路径 2479" d="M47.127,123.24s13.5-12.681,19.374-10.45c0,0-9.746,14.09-19.961,13.268Z" fill="#6c63ff"/>
      <path id="路径_2480" data-name="路径 2480" d="M52.512,109.385S64.136,94.238,70.477,95.412c0,0-7.045,13.5-17.965,15.516Z" fill="#6c63ff"/>
      <path id="路径_2481" data-name="路径 2481" d="M58.374,90.706S68.648,79.09,74.2,79.12c0,0-8.11,15.516-16.246,15.374Z" fill="#6c63ff"/>
      <path id="路径_2482" data-name="路径 2482" d="M61.847,78.268l9.922-24.184s.5,21.865-11.184,28.68Z" fill="#6c63ff"/>
      <path id="路径_2483" data-name="路径 2483" d="M65.876,51.589s1.644-20.2.587-21.84c0,0,7.1,16.774-.658,30.764Z" fill="#6c63ff"/>
      <path id="路径_2484" data-name="路径 2484" d="M32.03,261.7s-10.291-6.378-16.955,9.226c0,0,9.159,6.076,18.162-5.246Z" fill="#6c63ff"/>
      <path id="路径_2485" data-name="路径 2485" d="M27.522,244.295S14.9,238.533,8.773,254.829c0,0,9.754,6.689,19.9-6.42Z" fill="#6c63ff"/>
      <path id="路径_2486" data-name="路径 2486" d="M25.618,229.706s-9.041-10.568-22.645,0c0,0,8.572,9.276,22.645,2.7Z" fill="#6c63ff"/>
      <path id="路径_2487" data-name="路径 2487" d="M24.482,213.02s-9.159-11.037-22.2-.587c0,0,10.337,9.746,22.2,3.17Z" fill="#6c63ff"/>
      <path id="路径_2488" data-name="路径 2488" d="M25.618,199.428s-6.425-15.936-20.389-9.071c0,0,7.548,14.115,19.823,11.713Z" fill="#6c63ff"/>
      <path id="路径_2489" data-name="路径 2489" d="M28.676,182.625s-6.383-16.191-20.548-8.681c0,0,8.672,14.837,19.919,11.184Z" fill="#6c63ff"/>
      <path id="路径_2490" data-name="路径 2490" d="M32.617,168.2S30.1,150.448,18.38,148.858c0,0,2.487,18.72,12.673,22.54Z" fill="#6c63ff"/>
      <path id="路径_2491" data-name="路径 2491" d="M35.8,154.31s-.981-21.387-10.689-22.129c0,0,.327,16.233,9.595,25.161Z" fill="#6c63ff"/>
      <path id="路径_2492" data-name="路径 2492" d="M42.594,137.636s-2.9-17.785-12.161-19.961c0,0,1.149,17.227,11.247,24.323Z" fill="#6c63ff"/>
      <path id="路径_2493" data-name="路径 2493" d="M48.209,123.37s-.1-18.527-5.758-21.249c0,0-3.514,16.774,4.118,23.614Z" fill="#6c63ff"/>
      <path id="路径_2494" data-name="路径 2494" d="M52.944,109.179S52.159,90.1,46.288,87.41c0,0-2.009,15.1,5.775,23.018Z" fill="#6c63ff"/>
      <path id="路径_2495" data-name="路径 2495" d="M59.192,92.245s-.038-15.516-4.219-19.152c0,0-4.164,17,2.034,22.272Z" fill="#6c63ff"/>
      <path id="路径_2496" data-name="路径 2496" d="M61.352,77.5,57.284,51.677s-5.544,21.161,4.265,30.5Z" fill="#6c63ff"/>
      <path id="路径_2497" data-name="路径 2497" d="M62.148,51.836S51.7,34.475,51.912,32.546c0,0,1.111,18.2,14.258,27.258Z" fill="#6c63ff"/>
      <path id="路径_2498" data-name="路径 2498" d="M63.373,46.708S53.51,22.05,49.048,20.049c0,0,14.09,7.167,15.147,25.954Z" fill="#6c63ff"/>
    </g>
    <path id="路径_2499" data-name="路径 2499" d="M57.9,94.64l-.671-.21c8.324-27.145,10.4-44.452,5.846-48.788l.486-.512c4.827,4.575,2.86,21.7-5.661,49.509Z" fill="#444053"/>
    <path id="路径_2500" data-name="路径 2500" d="M34.966,158.176l-1-.352c.881-2.487,1.837-5.011,2.835-7.5,8.689-21.651,16.082-41.8,20.829-57.263l.864-.419c-4.751,15.516-12.014,36.413-20.712,58.093-.981,2.462-1.929,4.969-2.818,7.444Z" fill="#444053"/>
    <path id="路径_2501" data-name="路径 2501" d="M55.98,307.605c-.134-.151-13.629-15.34-23.031-41.281a152.821,152.821,0,0,1-9.1-47.291c-.642-20.184,3.59-42.724,10.849-63.193l.788.923C19.2,202.708,25.669,242.081,34.253,265.8c9.305,25.7,22.645,40.732,22.775,40.879Z" fill="#444053"/>
    <ellipse id="椭圆_71" data-name="椭圆 71" cx="187.443" cy="17.244" rx="187.443" ry="17.244" transform="translate(34.744 291.187)" fill="#6c63ff" opacity="0.1"/>
    <circle id="椭圆_72" data-name="椭圆 72" cx="129.371" cy="129.371" r="129.371" transform="translate(81.875 59.469)" fill="#6c63ff"/>
    <ellipse id="椭圆_73" data-name="椭圆 73" cx="13.415" cy="17.571" rx="13.415" ry="17.571" transform="translate(163.171 146.191)" fill="#444053"/>
    <ellipse id="椭圆_74" data-name="椭圆 74" cx="13.415" cy="17.571" rx="13.415" ry="17.571" transform="translate(232.49 146.191)" fill="#444053"/>
    <path id="路径_2502" data-name="路径 2502" d="M294.618,219.029c0,25.224-42.137,67.717-84.651,67.717s-83.032-43.449-83.032-68.678,39.658-2.155,82.194-2.155,85.49-22.113,85.49,3.116Z" fill="#444053"/>
    <path id="路径_2503" data-name="路径 2503" d="M140.312,223.34s76.423,17.009,140.631.478c0,0,7.859,0,2.491,9.083a14.464,14.464,0,0,1-5.871,5.506c-12.371,6.324-58.2,25.015-131.468,1.178a14.409,14.409,0,0,1-9.511-9.742c-.847-3.12-.478-6.072,3.728-6.5Z" fill="#f6f8fb"/>
    <path id="路径_2504" data-name="路径 2504" d="M147.676,92.531s-38.971,24.918-38.652,63.876,38.652-63.876,38.652-63.876Z" opacity="0.05"/>
    <path id="路径_2505" data-name="路径 2505" d="M385.383,305.764c-.671-2.671-2.3-2.717-2.3-2.717l-.025-.268-.6-6.6a.37.37,0,0,1-.084.088l-.034-.839a4.424,4.424,0,0,0-.042-.474,5.5,5.5,0,0,0,2.017-2.814c-.247-.315-.063-.252-.063-.252s-4.072-4.168-3.665-6.341-3.065-4.533-3.065-4.533a31.1,31.1,0,0,1-1.258-5.062c0-1.178-4.755-8.915-4.755-8.915s-4.194-9.842-7.875-14.069-3.355-6.529-3.355-6.529a7.863,7.863,0,0,1-.818-1.43,9.153,9.153,0,0,1-.419-1.074c.755-.1,1.258-.113,1.258-.113s3.015-.516,3.149-1.136a3.938,3.938,0,0,1,1.027-1.854c.575-.616-1.635-12.358-.461-15.395s-1.505-16.967-1.505-16.967a3.091,3.091,0,0,1,1.329-2.1l1.778-.7.9-.218.122-.029.185-.046.419-.1.122-.034.26-.071.1-.025.419-.13.138-.046.2-.067.151-.059.2-.08.222-.1.13-.067.138-.08.109-.071a1.708,1.708,0,0,0,.164-.13l.084-.084a1.194,1.194,0,0,0,.1-.109.574.574,0,0,0,.055-.084l.025-.034a.906.906,0,0,0-.088-.939,7.159,7.159,0,0,0-1.594-1.64l-.969-1.489a.063.063,0,0,1,0-.029,1.094,1.094,0,0,1,.05-.243,2.811,2.811,0,0,0,.046-.956.223.223,0,0,0,0-.055,2.437,2.437,0,0,0,.021-.3v-.13a1.346,1.346,0,0,0-.021-.289.328.328,0,0,1,0-.147,2.1,2.1,0,0,0-.055-.277c-.021-.092-.025-.109-.042-.164s-.046-.172-.075-.26l-.063-.172c-.029-.08-.063-.164-.1-.243s-.05-.122-.08-.18-.067-.151-.1-.226-.063-.122-.092-.18-.075-.143-.117-.214l-.1-.176-.117-.193-.113-.176-.113-.172-.113-.164c-.038-.05-.075-.1-.113-.151l-.109-.151-.1-.13-.1-.134-.088-.109-.092-.113-.071-.08-.075-.088-.05-.059-.055-.059-.029-.034-.029-.029v-.361a.565.565,0,0,0-.025-.2v-.025a12.73,12.73,0,0,1-.1-1.313,3.447,3.447,0,0,1,.3-1.325.629.629,0,0,0-.029-.658.844.844,0,0,1,.042-.088c.289-.558-.26-1.036-.948-1.392,0-1.023-.419-3.1-3.808-3.472,0,0-1.984-1.338-.067-3.741s-1.128-8.551-1.128-8.551-.969-2.516-.449-3.556-.6-10.291-.6-10.291,0-8.534-1.887-12.161-3.175-10.14-5.351-11.1a11.7,11.7,0,0,1-3.9-3.3l-1.015.327c-.176-.26-.352-.52-.52-.78a1.8,1.8,0,0,0,.239-.084,2.327,2.327,0,0,0,1.095-1.019,2.782,2.782,0,0,0,.18-.394,4.425,4.425,0,0,0,.243-1.535,7.748,7.748,0,0,1,.046-1.56,6.054,6.054,0,0,1,1.258-2.21,10.207,10.207,0,0,0,1.883-4.735,7.167,7.167,0,0,0-1.2-4.89,10.752,10.752,0,0,1-1.447-2.1c-.143-.361-.205-.746-.315-1.115a5.544,5.544,0,0,0-4.73-3.808c-1.782-.164-3.539.516-5.326.495-2.072-.025-4.194-.973-6.135-.252a6.035,6.035,0,0,0-2.244,1.677,17.615,17.615,0,0,0-1.317,1.64c-.239.335-.465.675-.679,1.027v.029c-.218.356-.419.721-.612,1.095a.373.373,0,0,0-.029.277.5.5,0,0,0,.252.239,2.885,2.885,0,0,1,.931.537,3.205,3.205,0,0,0,.34.335c-.059.071-.122.138-.18.214a10.618,10.618,0,0,0,4,16.242l.214.47a19.843,19.843,0,0,1,1.011,2.751l-.914.084a1.149,1.149,0,0,1-1.082,1.1,34.513,34.513,0,0,0-4.47,1.371,57.145,57.145,0,0,1-8.194,3.43c-3.082.826-4.449.122-4.449.122s-.348,2.239-3.837,1.006-3.95.067-3.95.067a130.315,130.315,0,0,0-16.988.688c-7.158.956-10.278.285-10.278.285s-.034.377-.071.99l-.725-.419c-4.755-2.541-13.524-6.483-14.774-1.677-1.745,6.68,13.574,9.519,13.574,9.519l1.132-.122.742-.08c.143,1.854.47,3.355,1.153,3.518.247.063,7.578.046,9.507.948s6.085-.419,6.085-.419a4.042,4.042,0,0,1,2.684.721c1.615.956,10.387.96,10.387.96s.625.134,2.868.793,6.2.088,6.2.088l9.255,1.2s.658,6.487-.067,8.844-.143,13.952-.143,13.952,2.1,14.111,1.522,15.785c-.453,1.3,3.565-.147,5.4-.864.1.382.218.839.356,1.355,0,.046.063.075.134.092l.151.1c.067.277.134.545.2.8l-.5.134.658.44a7.283,7.283,0,0,0,.264.784c.545,1.258-3.435,3.56-3.435,3.56s-10.991,6.009-14.292,8.806c0,0-2.579.839-2.78,1.64s-2.516.524-2.516.524-.327.868-.591,1.74a7.807,7.807,0,0,1-1.677,2.218s-3.267.512-3.728,2.248a35.806,35.806,0,0,0-.751,4.076l-3.669,6.676s-10.006,7.456-11.054,10.308l-7.083,4.747s-1.166,2.6-3.233,2.692-5.636,3.774-5.636,3.774,1.048.419,2.587,1.132c-.092.143-.18.285-.256.419a6.731,6.731,0,0,0-.625,1.707s-4.613,2.8-8.043,1.627a36.648,36.648,0,0,0-8.521-1.946c-2.126-.1-3.636.386-3.2,2.151.751,3.049,8.32,10.723,12.052,14.363a20.225,20.225,0,0,0,1.875,1.615,19.21,19.21,0,0,0,2.764,1.77,18.771,18.771,0,0,0,1.745.805,14.258,14.258,0,0,0,1.967.633c1.317.306,2.516.294,3.191-.419,2.164-2.214,1.258-3.774,1.258-3.774l.243-.18,5.963-4.462,1.35-1.153.373-.319a8,8,0,0,1-2.017,4.395,28.221,28.221,0,0,1,4.667-2.172c2.1-.654,3.388-4.613,3.388-4.613s1.145-1.166,3.179-3.254,2.411-7.435,2.411-7.435,10.438-6.643,14.677-14.3c0,0,.767-1.048,2.1-2.587a7.388,7.388,0,0,0,1.375-4.093,8.41,8.41,0,0,1,1.979-2.646c1.782-1.9,1.552-3.095,1.552-3.095s.839-1.17,3.959-.935,10.45-3.464,10.45-3.464a9.075,9.075,0,0,0,.067.927c-.637,1.468-1.057,2.487-1.057,2.487s6.391,25.509,3.829,29.518c-1.329,2.1,2.336.5,6.177-1.5.2.239.419.491.663.759a32.707,32.707,0,0,0,2.9,2.768l.126.109s7.783,12.01,9.016,13.419.419,5.552.419,5.552,2.172,14.48,5.141,17.017a7.078,7.078,0,0,0,2.046,1.078,4.959,4.959,0,0,0,1.581,3.284s-.034,4.8-2.541,6.827a32.619,32.619,0,0,0-5.494,5.51c-1.078,1.556-1.413,2.935.138,3.422,2.68.868,12.09-1.229,16.623-2.332a17.366,17.366,0,0,0,6.194-2.843c1.568-1.153,2.935-2.55,2.625-3.8ZM282.15,257.773c.26.172.516.348.772.528l-.419.335-.172.134a1.753,1.753,0,0,0-.042-.281c-.046-.231-.088-.47-.138-.717Z" fill="url(#linear-gradient)"/>
    <path id="路径_2506" data-name="路径 2506" d="M283.337,152.213l-4.726.5-1.115.122s-15.1-2.814-13.377-9.415c1.233-4.776,9.88-.868,14.573,1.677,1.795.969,3.007,1.732,3.007,1.732Z" fill="#d17483"/>
    <path id="路径_2507" data-name="路径 2507" d="M294.442,263.8l-5.175,4.449-1.334,1.145-3.1.939-7.687-6.785,5.712-4.554.168-.138,4.621-3.682Z" fill="#dce6f2"/>
    <path id="路径_2508" data-name="路径 2508" d="M376.648,290.915l-7.305.34,2,8.928,2.738.944,7.628-.637-.205-5.125a4.646,4.646,0,0,0-4.86-4.449Z" fill="#dce6f2"/>
    <path id="路径_2509" data-name="路径 2509" d="M282.8,258.729a41.037,41.037,0,0,0-5.4-3.1,3.808,3.808,0,0,1,2.516-2.1c1.652-.348,2.5,2.852,2.881,5.2Z" opacity="0.1"/>
    <path id="路径_2510" data-name="路径 2510" d="M289.263,268.245c.315-3.728-2.814-6.978-6.24-9.389l4.613-3.686,6.794,8.626Z" opacity="0.1"/>
    <path id="路径_2511" data-name="路径 2511" d="M383.45,292.1c-2.143,7.075-16.883,4.948-19.81,2.432s-5.074-16.883-5.074-16.883.805-4.131-.419-5.51-8.89-13.293-8.89-13.293-.084-.071-.126-.1A32.291,32.291,0,0,1,346.266,256c-2.361-2.587-2.411-3.837-2.411-3.837a55.862,55.862,0,0,0-3.728-11.549c-2.1-4.906-2.965-11.574-3.263-14.74-.1-1.128-.143-1.812-.143-1.812s-7.221,3.665-10.308,3.435-3.908.931-3.908.931.231,1.178-1.526,3.07a8.444,8.444,0,0,0-1.954,2.625,7.27,7.27,0,0,1-1.359,4.059c-1.321,1.522-2.076,2.566-2.076,2.566-4.194,7.6-14.484,14.191-14.484,14.191s-.382,5.309-2.395,7.381l-3.137,3.229s-1.292,3.938-3.355,4.588a27.473,27.473,0,0,0-4.613,2.155c8.492-10.194-12.526-18.229-12.526-18.229s3.514-3.657,5.556-3.749,3.191-2.671,3.191-2.671l6.986-4.718c1.032-2.831,10.9-10.224,10.9-10.224l3.619-6.622a35.425,35.425,0,0,1,.742-4.009c.453-1.719,3.678-2.231,3.678-2.231a7.79,7.79,0,0,0,1.635-2.2c.256-.86.583-1.724.583-1.724s2.281.285,2.478-.52,2.743-1.627,2.743-1.627c3.258-2.8,14.1-8.756,14.1-8.756s3.925-2.29,3.388-3.535a6.748,6.748,0,0,1-.264-.776v-.067q-.071-.239-.138-.5c-.495-1.916-1.04-4.856-1.04-4.856s19.077-11.092,25.337-8.278c1.828.818,2.894,2.881,3.451,5.515.893,4.215.486,9.884-.2,14.237a40.915,40.915,0,0,1-1.145,5.3,57.2,57.2,0,0,0-1.782,11.9s-.2,13.533-.679,16.862a8.236,8.236,0,0,0,.713,4.537,7.816,7.816,0,0,0,.809,1.417s-.344,2.281,3.3,6.479,7.766,13.952,7.766,13.952,4.709,7.67,4.693,8.848a29.548,29.548,0,0,0,1.225,5.032s3.426,2.332,3.024,4.491,3.615,6.29,3.615,6.29-.168-.071.075.243Z" fill="#bdd2e8"/>
    <path id="路径_2512" data-name="路径 2512" d="M334.666,204.93s4.11,1.975,4.445,4.332S334.666,204.93,334.666,204.93Z" opacity="0.1"/>
    <path id="路径_2513" data-name="路径 2513" d="M318.957,218.484l2.248,2.629-1.166-4.776-2.47-.159Z" opacity="0.1"/>
    <path id="路径_2514" data-name="路径 2514" d="M316.353,224.07c.243.189,3,6.349,3.736,6.42S316.353,224.07,316.353,224.07Z" opacity="0.1"/>
    <path id="路径_2515" data-name="路径 2515" d="M361.849,206.729a40.915,40.915,0,0,1-1.145,5.3,57.2,57.2,0,0,0-1.782,11.9s-.2,13.533-.679,16.862a8.236,8.236,0,0,0,.713,4.537,12.618,12.618,0,0,0-5.187,1.514c-2.244,1.451-.944,5.426-.944,5.426s-3.233,1.946-6.546,3.707c-2.361-2.587-2.411-3.837-2.411-3.837a55.862,55.862,0,0,0-3.728-11.549c-2.1-4.906-2.965-11.574-3.263-14.74a65.122,65.122,0,0,1,4.73-9.406c1.48-2.067-.285-8.324-1.518-11.985l-.34-.231-4.055-2.722-1.233-.839-.646-.419.491-.134,27.757-7.615c.876,4.215.47,9.884-.214,14.225Z" opacity="0.1"/>
    <path id="路径_2516" data-name="路径 2516" d="M333.823,199.147l1.879,1.258,4.051,2.722.344.231c1.233,3.661,3,9.918,1.514,11.985-2.143,3-5.871,12.094-5.871,12.094s6.29,25.3,3.774,29.284,13.323-5.54,13.323-5.54-1.3-3.975.948-5.426,6.018-1.581,6.018-1.581,2.973-.512,3.107-1.128a3.858,3.858,0,0,1,1.015-1.837c.562-.612-1.615-12.262-.457-15.273s-1.489-16.833-1.489-16.833a3.07,3.07,0,0,1,1.317-2.1,3.879,3.879,0,0,1,1.082-.52l.239-.067c.143-.042.294-.08.419-.109,1.8-.449,3.774-.839,4.194-1.677l-.419-.637-2.21-3.414a2.541,2.541,0,0,1,.063-1,1.753,1.753,0,0,1,.034-.205c.323-2.176-2.185-4.818-2.185-4.818a12.584,12.584,0,0,1-.193-1.879v-.021a4.676,4.676,0,0,1,.268-1.963Z" fill="#653c5b"/>
    <path id="路径_2517" data-name="路径 2517" d="M340.889,203.97c-.218-.046,13.528.445,17.776,5.871C358.665,209.854,358.816,207.878,340.889,203.97Z" opacity="0.1"/>
    <path id="路径_2518" data-name="路径 2518" d="M351.725,213.02s2.743,19.71,2.135,23.144,3.2,1.22,3.2,1.22,3.879-28.608-5.33-24.365Z" opacity="0.1"/>
    <path id="路径_2519" data-name="路径 2519" d="M369.259,204.633a1.76,1.76,0,0,0-.1-.2c-.927-1.552-2.839-1.875-2.516-3.854a1.2,1.2,0,0,1,.05-.256,2.76,2.76,0,0,0,.046-.948,8.814,8.814,0,0,0-2.2-4.076,12.312,12.312,0,0,1-.18-2.621,3.418,3.418,0,0,1,.3-1.313.612.612,0,0,0-.029-.65c-.512-.868-2.78-1.43-2.78-1.43l-15.369,2.436c-1.816.621-3.548,1.258-5.129,1.866-4.743,1.812-8.106,3.317-8.106,3.317l.113.449c.1.419.268,1.069.474,1.82.067.26,1.338-.046,1.417.231l.47,1.032,3.393.939s.277.692.658,1.782a.784.784,0,0,0,.067.2l.277.038c6.412.788,15.294,2.042,23.19,3.64Z" opacity="0.1"/>
    <path id="路径_2520" data-name="路径 2520" d="M364.616,206.419l-.239.067c-8.265-1.728-17.823-3.074-24.541-3.9-.419-1.2-.721-1.975-.721-1.975l-5.057-1.4-.138-.486c-.243-.876-.445-1.677-.562-2.139l-.113-.449s3.355-1.505,8.106-3.313c1.581-.608,3.317-1.258,5.133-1.87l15.365-2.432a10.1,10.1,0,0,1,1.635.575c.784.365,1.5.885,1.174,1.505-.633,1.225-.113,3.95-.113,3.95s2.675,2.818,2.151,5.032,1.505,2.5,2.47,4.114-2.072,2.072-4.55,2.717Z" fill="#653c5b"/>
    <path id="路径_2521" data-name="路径 2521" d="M350.505,139.964s-20.171,1.619-17.856-.2c1.157-.91.361-3.619-.73-6.1a44.2,44.2,0,0,0-2.453-4.7s15.332-4.428,13.688-1.912c-.486.742-.046,2.172.839,3.82a61.2,61.2,0,0,0,6.513,9.092Z" fill="#d17483"/>
    <path id="路径_2522" data-name="路径 2522" d="M343.98,130.885c-.419.5-1.505-.1-2.03.315-1.833,1.434-3.569,3.334-6.072,3.3a10.522,10.522,0,0,1-3.959-.839,44.2,44.2,0,0,0-2.453-4.7s15.332-4.42,13.688-1.9c-.486.755-.046,2.185.826,3.833Z" opacity="0.1"/>
    <path id="路径_2523" data-name="路径 2523" d="M346.6,123.7a10.53,10.53,0,1,1-2.975-7.527A10.568,10.568,0,0,1,346.6,123.7Z" fill="#d17483"/>
    <path id="路径_2524" data-name="路径 2524" d="M363.669,190.9a21.177,21.177,0,0,1-4.94-.52c-2.587-.6-4.781,1.724-4.781,1.724s-5.032,1.967-7.318,1.564-12.308,4.885-12.308,4.885l-.419.164c-.243-.876-.445-1.677-.562-2.139l-.113-.449s3.355-1.505,8.106-3.313c1.581-.608,3.317-1.258,5.133-1.87l15.365-2.432a10.1,10.1,0,0,1,1.635.575,3.489,3.489,0,0,1,.2,1.812Z" opacity="0.1"/>
    <path id="路径_2525" data-name="路径 2525" d="M283.337,152.213l-4.726.5a59.086,59.086,0,0,1,.08-7.636c1.795.969,3.007,1.732,3.007,1.732Z" opacity="0.1"/>
    <path id="路径_2526" data-name="路径 2526" d="M346.769,133.481s-2.982.944-4.659,1.6-10.094,1.4-10.094,1.4a1.136,1.136,0,0,1-1.065,1.1,32.985,32.985,0,0,0-4.407,1.355,55.8,55.8,0,0,1-8.085,3.405c-3.053.822-4.391.122-4.391.122s-.34,2.218-3.774.994-3.9.067-3.9.067a128.358,128.358,0,0,0-16.774.684c-7.075.948-10.14.285-10.14.285s-.918,11.121,1.006,11.633c.243.067,7.477.046,9.377.939s6-.419,6-.419a3.981,3.981,0,0,1,2.65.721c1.594.952,10.245.952,10.245.952s.616.13,2.831.784,6.114.088,6.114.088l9.129,1.2s.65,6.437-.063,8.773-.143,13.839-.143,13.839,2.1,14,1.505,15.659,6.194-1.208,6.194-1.208,10.031-5.292,12.308-4.89,7.318-1.56,7.318-1.56,2.2-2.319,4.785-1.724a20.993,20.993,0,0,0,4.936.5s.73-3.51-3.711-4.009c0,0-1.958-1.325-.071-3.707s-1.1-8.458-1.1-8.458-.952-2.487-.445-3.531-.591-10.2-.591-10.2,0-8.467-1.862-12.082-3.133-10.064-5.28-11.012a11.387,11.387,0,0,1-3.845-3.292Z" fill="#dce6f2"/>
    <path id="路径_2527" data-name="路径 2527" d="M335.538,161.858s13.08,5.816,16.594,10.5S335.538,161.858,335.538,161.858Z" opacity="0.1"/>
    <path id="路径_2528" data-name="路径 2528" d="M340.709,171.831s15.81,9.192,14.728,11.524S340.709,171.831,340.709,171.831Z" opacity="0.1"/>
    <path id="路径_2529" data-name="路径 2529" d="M343.292,181.077s5.716,2.311,6.747,3.623S343.292,181.077,343.292,181.077Z" opacity="0.1"/>
    <path id="路径_2530" data-name="路径 2530" d="M317.116,145.223s12.082,6.479,10.006,9.108S317.116,145.223,317.116,145.223Z" opacity="0.1"/>
    <path id="路径_2531" data-name="路径 2531" d="M312.294,149.789a47.744,47.744,0,0,1,2.021,5.405C314.366,155.987,310.675,150.443,312.294,149.789Z" opacity="0.1"/>
    <path id="路径_2532" data-name="路径 2532" d="M304.192,151.031c0,.247,6.29,4.105,3.695,5.12S304.192,151.031,304.192,151.031Z" opacity="0.1"/>
    <path id="路径_2533" data-name="路径 2533" d="M308.976,228.783c.185.247.839,2.667,2.852,3.749S308.976,228.783,308.976,228.783Z" opacity="0.1"/>
    <path id="路径_2534" data-name="路径 2534" d="M290.11,247.109c-.029,2.038-.373,8.525,1.287,9.226S290.11,247.109,290.11,247.109Z" opacity="0.1"/>
    <path id="路径_2535" data-name="路径 2535" d="M294.723,252.858s3.8,6.42,2.487,7.515-2.822-1.526-2.822-1.526Z" opacity="0.1"/>
    <path id="路径_2536" data-name="路径 2536" d="M362.377,266.827a21.332,21.332,0,0,0,4.688.377C369.611,267.116,362.377,266.827,362.377,266.827Z" opacity="0.1"/>
    <path id="路径_2537" data-name="路径 2537" d="M360.385,263.707s4.684.872,6.366-.029S360.385,263.707,360.385,263.707Z" opacity="0.1"/>
    <path id="路径_2538" data-name="路径 2538" d="M358.54,258.729s4.688.377,5.64-1.216S358.54,258.729,358.54,258.729Z" opacity="0.1"/>
    <path id="路径_2539" data-name="路径 2539" d="M357.219,256.121s4.5.746,5.255-.294S357.219,256.121,357.219,256.121Z" opacity="0.1"/>
    <path id="路径_2540" data-name="路径 2540" d="M352.837,246.665s4.848,2.294,5.385,3.6S352.837,246.665,352.837,246.665Z" opacity="0.1"/>
    <path id="路径_2541" data-name="路径 2541" d="M346.6,123.7a10.53,10.53,0,0,1-4.064,8.173c-.029-.055-.055-.109-.08-.164-.461-.985-.579-2.1-1.006-3.078a1.489,1.489,0,0,0-.746-.86c-.679-.264-1.355.356-1.8.914s-1.115,1.187-1.8.939a1.707,1.707,0,0,1-.839-.885,9.184,9.184,0,0,1-1.472-4.022,17.927,17.927,0,0,0,.025-2.122,4.56,4.56,0,0,0-2.172-2.965,27.138,27.138,0,0,0-3.46-1.677,5.137,5.137,0,0,1-1.468-.939,10.568,10.568,0,0,1,18.871,6.685Z" opacity="0.1"/>
    <path id="路径_2542" data-name="路径 2542" d="M326.417,115.444c-.256.6.717.541,1.141,1.044a4.688,4.688,0,0,0,1.631,1.107,28.018,28.018,0,0,1,3.46,1.677,4.554,4.554,0,0,1,2.172,2.969,18.792,18.792,0,0,1-.021,2.118,9.213,9.213,0,0,0,1.468,4.026,1.757,1.757,0,0,0,.839.885c.688.243,1.346-.382,1.8-.939s1.128-1.178,1.807-.918a1.493,1.493,0,0,1,.742.86c.419.994.545,2.1,1.006,3.082a2.686,2.686,0,0,0,2.558,1.728,2.2,2.2,0,0,0,1.564-1.149,3.891,3.891,0,0,0,.419-1.908,7.615,7.615,0,0,1,.046-1.547,6.14,6.14,0,0,1,1.225-2.193,10.157,10.157,0,0,0,1.849-4.684,7.158,7.158,0,0,0-1.178-4.848,10.477,10.477,0,0,1-1.43-2.1c-.138-.356-.2-.738-.31-1.107a5.473,5.473,0,0,0-4.667-3.774c-1.753-.164-3.489.512-5.25.491-2.042-.021-4.152-.965-6.055-.247a5.921,5.921,0,0,0-2.21,1.677,16.976,16.976,0,0,0-2.592,3.774" fill="#653c5b"/>
    <path id="路径_2543" data-name="路径 2543" d="M282.05,273.826l-.243.18s.906,1.56-1.229,3.774c-1,1.027-3.12.558-5.087-.226a19.29,19.29,0,0,1-6.29-4.156c-3.678-3.611-11.146-11.222-11.889-14.258-.419-1.753,1.057-2.239,3.154-2.135a34.811,34.811,0,0,1,8.387,1.933c3.38,1.162,7.93-1.615,7.93-1.615a6.843,6.843,0,0,1,.616-1.677,3.808,3.808,0,0,1,2.516-2.1c1.635-.331,2.478,2.868,2.868,5.2a1.635,1.635,0,0,0,.046.281c.185,1.162.256,2.046.256,2.046,2.906-.2,4.143,4.017,3.988,6.177s.839,2.176.839,2.176Z" fill="#ffd6db"/>
    <path id="路径_2544" data-name="路径 2544" d="M281.806,273.994s.906,1.56-1.229,3.774c-1,1.027-3.12.562-5.087-.226a19.227,19.227,0,0,1-6.29-4.156c-3.682-3.611-11.147-11.222-11.889-14.258-.419-1.753,1.057-2.239,3.154-2.135.18,1.77.633,4.194,1.74,5.481,1.887,2.189,7.276,9.561,14.015,9.645a10.484,10.484,0,0,1,5.837,1.677Z" fill="#c8a9b4"/>
    <path id="路径_2545" data-name="路径 2545" d="M269.612,267.02s6.5-4.974,11.964-2.73C281.576,264.29,276.762,263.908,269.612,267.02Z" opacity="0.1"/>
    <path id="路径_2546" data-name="路径 2546" d="M276.98,265.829s6.215,1.946,7.452,1.963S278.041,265.351,276.98,265.829Z" opacity="0.1"/>
    <path id="路径_2547" data-name="路径 2547" d="M367.736,280.737s7.46.155,7.7,1.849-2.785,1.594-2.785,1.594Z" opacity="0.1"/>
    <path id="路径_2548" data-name="路径 2548" d="M382.213,302.64l.025.268s1.606.05,2.265,2.7c.31,1.258-1.04,2.629-2.566,3.774a17.147,17.147,0,0,1-6.11,2.822c-4.47,1.09-13.755,3.17-16.4,2.315-1.531-.5-1.2-1.854-.134-3.4a31.279,31.279,0,0,1,5.418-5.452c2.47-2.013,2.516-6.773,2.516-6.773s-2.193-2-1.392-4.164,7.192,1.132,7.192,1.132c1.216-2.3,4.995-1.258,6.559-.117s2.042.394,2.042.394Z" fill="#ffd6db"/>
    <path id="路径_2549" data-name="路径 2549" d="M382.238,302.908s1.606.05,2.265,2.7c.31,1.258-1.04,2.629-2.566,3.774a17.147,17.147,0,0,1-6.11,2.822c-4.47,1.09-13.755,3.17-16.4,2.315-1.531-.5-1.2-1.854-.134-3.4,1.426.692,3.472,1.489,4.974,1.258,2.545-.419,10.673-1.023,13.914-6.085a9.373,9.373,0,0,1,4.03-3.632Z" fill="#c8a9b4"/>
    <path id="路径_2550" data-name="路径 2550" d="M371.209,308.88s-.713-7.267,3.56-10.362C374.769,298.518,372.215,301.994,371.209,308.88Z" opacity="0.1"/>
    <path id="路径_2551" data-name="路径 2551" d="M373.775,302.728a55.168,55.168,0,0,0,4.99-4.726C379.361,297.05,373.909,301.7,373.775,302.728Z" opacity="0.1"/>
    <path id="路径_2552" data-name="路径 2552" d="M364.046,194.606s-5.665,2.935-9.788,1.774S364.046,194.606,364.046,194.606Z" opacity="0.1"/>
    <path id="路径_2553" data-name="路径 2553" d="M366.063,200.506s-.889,1.594-6.445,1.2S366.063,200.506,366.063,200.506Z" opacity="0.1"/>
    <g id="组_42" data-name="组 42" transform="translate(326.258 113.226)" opacity="0.1">
      <path id="路径_2554" data-name="路径 2554" d="M21.773,13.407l.235-.327c.172-.247.335-.5.486-.763a10.212,10.212,0,0,0-.721,1.09Z"/>
      <path id="路径_2555" data-name="路径 2555" d="M19.424,18.858a2.7,2.7,0,0,1-2.558-1.728c-.461-.981-.579-2.1-1.006-3.082a1.493,1.493,0,0,0-.742-.86c-.679-.26-1.355.361-1.807.918s-1.111,1.183-1.8.939a1.732,1.732,0,0,1-.839-.885A9.132,9.132,0,0,1,9.2,10.14a18.871,18.871,0,0,0,0-2.122A4.522,4.522,0,0,0,7.028,5.053a28.015,28.015,0,0,0-3.46-1.677A4.672,4.672,0,0,1,1.942,2.269C1.522,1.765.541,1.82.8,1.225.994.839,1.22.465,1.43.1a17.378,17.378,0,0,0-1.3,2.139c-.256.6.717.541,1.141,1.044A4.688,4.688,0,0,0,2.906,4.386a28.018,28.018,0,0,1,3.46,1.677A4.554,4.554,0,0,1,8.538,9.033a18.791,18.791,0,0,1-.021,2.118,9.213,9.213,0,0,0,1.468,4.026,1.757,1.757,0,0,0,.839.885c.688.243,1.346-.382,1.8-.939s1.128-1.178,1.807-.918a1.493,1.493,0,0,1,.742.86c.419.994.545,2.1,1.006,3.082a2.686,2.686,0,0,0,2.558,1.728A2.2,2.2,0,0,0,20.3,18.724a3.263,3.263,0,0,0,.176-.39,2.059,2.059,0,0,1-1.053.524Z"/>
    </g>
    <path id="路径_2556" data-name="路径 2556" d="M331.756,137.28s4.827-.239,8.039-.13,7.968-2.483,7.968-2.483" opacity="0.1"/>
    <path id="路径_2557" data-name="路径 2557" d="M132.164,170.879c-.486-2.474-5.062-2.076-8.387-1.438-.281.055-.554.109-.814.168l.239-.994-1.564-.646a41.161,41.161,0,0,0-9.578-2.655c-4.814-.721-12.447-2.269-17.139-5.267-4.265-2.726-5.976-3.514-7.167-4.248v-.642c0-1.216-.071-2.332-.164-3.325a14.019,14.019,0,0,0-.528-2.7c-1-3.309-3.246-4.37-5.5-6.441a20.615,20.615,0,0,0-4.961-3.455,13.277,13.277,0,0,1,.956-3.179c.063-.155.13-.306.193-.461a.059.059,0,0,1,.029-.059c.067-.155.134-.31.2-.457a10.333,10.333,0,0,0,5.4-9.041,10.22,10.22,0,0,0-3.036-7.267q-.243-.239-.5-.465l.486-.159c1.036-.369,2.164-1.384,1.862-2.248h-.151a.868.868,0,0,0-.042-.18,2.1,2.1,0,0,1-1.258-.474c-.482-.6-.629-1.489-1.514-2.323a4.13,4.13,0,0,0-.658-.57,5.812,5.812,0,0,0-2.135-.885c.063.042.13.075.193.122l.13.1c-1.757-.419-3.741-.356-5.41-1.074a7.838,7.838,0,0,1-1.153-.633l.218.059c-.9-.52-1.711-1.187-2.646-1.677a7.3,7.3,0,0,0-1.631-.591l.419.247a9.754,9.754,0,0,0-7.263,1.166,16.018,16.018,0,0,0-5.766,6.517A27.791,27.791,0,0,0,50.293,129.7c.084,2.348.461,4.785-.419,6.991-.73,1.845-2.26,3.313-3.175,5.083-3.527,6.844,2.969,15.734-1.011,22.352-1.438,2.395-4.013,3.98-5.766,6.181s-2.386,5.762-.05,7.414c1.677,1.191,4.064.805,6.064,1.409a9.645,9.645,0,0,1-2.856,5.4l-.327-.063c-.075.071-.147.147-.226.214l.31.08-.117.113a32.147,32.147,0,0,0,6.71,1.191,10.766,10.766,0,0,0,5.9-.889A7.968,7.968,0,0,0,57.64,183.2c0,.419.029.788.055,1.17a22.733,22.733,0,0,0,.654,4.575c1.942,7.041-4.194,12.56-4.194,12.56a20.267,20.267,0,0,0-2.055,9.855,20.519,20.519,0,0,0,1.258,6.03c.059.155.113.306.172.453.113.294.235.579.352.839.18.419.361.784.541,1.128.117.235.235.453.348.654a15.2,15.2,0,0,0,1.35,2.067q.931-.633,1.862-1.2v.751c.034,2.6-.226,5.871-.226,5.871s-1.946,6.949-2.139,8.949-.944,14.371-.944,14.371-2.625,8-7.481,12.849S43.42,282.88,43.42,282.88s-3.4,11.7-2.235,12.275a1.187,1.187,0,0,0,.583.034v.474c-2.1,1.455-3.69,2.634-3.69,2.634s-.583,9.612-1.363,11.469.973,4.047.973,4.047,17.3-.478,18.8-.575a24.617,24.617,0,0,0,5.385-1.854c2.051-.457,8.24-2.868,10.484-5.112a3.284,3.284,0,0,0,.788-1.065c1.069-2.667-8.6-.667-11.226-.667s-2.915-2-4.131-3.523-.34-4.043-.34-4.043l-.252-7.129,1.153-.465s1.556-6.093,4.08-9.041,7-14.183,7.1-14.753.193-1.619,2.038-4.194,3.657-8.077,3.657-8.077,4.194-13.134,7.385-19.89c1.958-4.131,3.049-11.448,3.6-16.523a16.551,16.551,0,0,1,1.778.6s.9-5.749,1.258-12.312a70.259,70.259,0,0,0-.08-10.064c-.512-5.452-3.695-16.007-3.506-25.828.767.495,1.514.965,2.185,1.384,0-.247.029-.491.046-.738,1.719,1.069,2.961,1.8,2.961,1.8s10.3,5.707,19.337,5.8,10.593,1.141,10.593,1.141l.57-2.357.809-.151c3.808-.73,10.564-2.462,10.006-5.3Z" fill="url(#linear-gradient-2)"/>
    <path id="路径_2558" data-name="路径 2558" d="M83.255,116.3l-.47-.348a1,1,0,0,1,.193.331Z" fill="url(#linear-gradient-3)"/>
    <path id="路径_2559" data-name="路径 2559" d="M82.2,115.9h.281l-.264-.2h.071l-.47-.344a1,1,0,0,1,.189.327h.1A.923.923,0,0,1,82.2,115.9Z" fill="url(#linear-gradient-4)"/>
    <path id="路径_2560" data-name="路径 2560" d="M61.809,133.112h7.477v11.671H61.809Z" fill="#965d7b"/>
    <path id="路径_2561" data-name="路径 2561" d="M61.809,133.112h7.477v11.671H61.809Z" opacity="0.1"/>
    <path id="路径_2562" data-name="路径 2562" d="M42.942,289.619h6.8v9.159h-6.8Z" transform="translate(92.682 588.397) rotate(180)" fill="#e8f4ff"/>
    <path id="路径_2563" data-name="路径 2563" d="M62.643,133.288c1.824.7,3.879,4.382,3.98,7.46.042,1.388-1.589,3.745-1.589,3.745l1.677-.2c.86-.113,1.975-.264,3.158-.44.99-.151,2.025-.319,3-.5,2.671-.495,4.856-1.086,4.256-1.631a1.654,1.654,0,0,1-.289-1.417,13.6,13.6,0,0,1,.931-3.154c.13-.331.273-.658.419-.969.616-1.409,1.212-2.516,1.212-2.516s-5.707-.419-10.484-.616c-1.631-.071-3.158-.117-4.324-.122h-.457c-1.447-.008-2.143.109-1.489.356Z" fill="#ffc1c7"/>
    <path id="路径_2564" data-name="路径 2564" d="M86.622,211.85s-.839,15.2-3.963,21.9-7.175,19.735-7.175,19.735-1.795,5.477-3.59,8.026-1.887,3.59-1.984,4.156-4.437,11.708-6.894,14.635-3.963,8.97-3.963,8.97-10.765,4.529-11.9,3.963,2.172-12.161,2.172-12.161-1.04-13.788,3.682-18.6,7.272-12.744,7.272-12.744.755-12.279.944-14.258,2.076-8.878,2.076-8.878.566-7.272-.092-8.685,23.413-6.06,23.413-6.06Z" fill="#575a89"/>
    <path id="路径_2565" data-name="路径 2565" d="M86.622,211.85s-.839,15.2-3.963,21.9-7.175,19.735-7.175,19.735-1.795,5.477-3.59,8.026-1.887,3.59-1.984,4.156-4.437,11.708-6.894,14.635-3.963,8.97-3.963,8.97-10.765,4.529-11.9,3.963,2.172-12.161,2.172-12.161-1.04-13.788,3.682-18.6,7.272-12.744,7.272-12.744.755-12.279.944-14.258,2.076-8.878,2.076-8.878.566-7.272-.092-8.685,23.413-6.06,23.413-6.06Z" opacity="0.05"/>
    <path id="路径_2566" data-name="路径 2566" d="M57.825,288.709l.285,8.165s-.839,2.516.327,4.013,1.464,3.493,4.013,3.493,11.947-1.984,10.9.663-9.867,6.043-11.323,6.135-18.259.566-18.259.566-1.7-2.168-.944-4.009,1.321-11.381,1.321-11.381,13.109-9.947,13.675-7.645Z" fill="#444053"/>
    <path id="路径_2567" data-name="路径 2567" d="M57.9,288.638l.281,8.169s-.839,2.516.331,4.009,1.464,3.5,4.013,3.5,11.943-1.984,10.9.658-9.867,6.043-11.323,6.139-18.271.566-18.271.566-1.677-2.172-.944-4.013,1.3-11.377,1.3-11.377,13.138-9.964,13.7-7.649Z" opacity="0.05"/>
    <path id="路径_2568" data-name="路径 2568" d="M42.372,295c1.132.566,11.884-3.984,11.884-3.984s1.51-6.043,3.967-8.97,6.8-14.069,6.89-14.635.189-1.606,1.984-4.156,3.59-8.026,3.59-8.026S74.746,242.2,77.862,235.5c2.164-4.655,3.233-13.419,3.69-18.322.2-2.164.277-3.585.277-3.585s-24.079,4.613-23.417,6.043a9.108,9.108,0,0,1,.315,2.864c.034,2.575-.222,5.821-.222,5.821s-1.887,6.894-2.076,8.878-.944,14.258-.944,14.258-2.55,7.93-7.272,12.744-3.682,18.6-3.682,18.6-3.275,11.633-2.16,12.2Z" fill="#575a89"/>
    <path id="路径_2569" data-name="路径 2569" d="M67.675,229.756s-4.911-1.321-6.609.189S67.675,229.756,67.675,229.756Z" opacity="0.1"/>
    <path id="路径_2570" data-name="路径 2570" d="M67.583,235.988s-7.745-1.677-7.838.755S67.583,235.988,67.583,235.988Z" opacity="0.1"/>
    <path id="路径_2571" data-name="路径 2571" d="M64.467,242.794s-2.663,2.26-4.34,1.505S64.467,242.794,64.467,242.794Z" opacity="0.1"/>
    <path id="路径_2572" data-name="路径 2572" d="M57.292,255.06s5.38,1.984,4.152,4.064-2.172,2.361-2.642,1.791-1.51-5.854-1.51-5.854Z" opacity="0.1"/>
    <path id="路径_2573" data-name="路径 2573" d="M53.04,290.47l.285,8.169s-.839,2.516.331,4.009,1.464,3.5,4.013,3.5,11.943-1.984,10.9.658-9.867,6.043-11.323,6.139-18.271.566-18.271.566-1.7-2.172-.944-4.013,1.321-11.377,1.321-11.377,13.117-9.964,13.683-7.649Z" fill="#444053"/>
    <path id="路径_2574" data-name="路径 2574" d="M50.3,301.424s-.235,1.606-5.288.046S50.3,301.424,50.3,301.424Z" opacity="0.1"/>
    <path id="路径_2575" data-name="路径 2575" d="M41.1,302.6s-1.132,1.56,2.881,2.269S41.1,302.6,41.1,302.6Z" opacity="0.1"/>
    <path id="路径_2576" data-name="路径 2576" d="M42.183,301.374s3.967,3.447,5.192,3.447" opacity="0.1"/>
    <path id="路径_2577" data-name="路径 2577" d="M64.1,132.923c1.753,3.179,4.965,2.629,9.025,5.334,1.384.927,3.246-.394,4.638-1.107.734-1.828,1.623-3.489,1.623-3.489s-10.979-.776-15.285-.738Z" opacity="0.1"/>
    <path id="路径_2578" data-name="路径 2578" d="M62.832,127.215a10.245,10.245,0,1,0,3-7.292,10.291,10.291,0,0,0-3,7.292Z" fill="#ffc1c7"/>
    <path id="路径_2579" data-name="路径 2579" d="M58.424,219.654a9.108,9.108,0,0,1,.315,2.864A34.744,34.744,0,0,1,81.565,217.2c.2-2.164.277-3.585.277-3.585s-24.079,4.625-23.417,6.043Z" opacity="0.1"/>
    <path id="路径_2580" data-name="路径 2580" d="M53.027,211.866a20.7,20.7,0,0,0,3.883,11.092c16.355-11.323,30.973-5,30.973-5s.868-5.7,1.208-12.216a72.38,72.38,0,0,0-.075-9.976c-.533-5.749-4-17.231-3.334-27.476.294-4.508,2.042-8.71,1.979-12.186,0-1.2-.067-2.311-.155-3.3a14.052,14.052,0,0,0-.516-2.675c-.965-3.288-3.154-4.336-5.338-6.391a19.986,19.986,0,0,0-4.823-3.43c-3.548-1.732-7.129-1.732-10.207.44a12.053,12.053,0,0,0-1.61,1.371,15.248,15.248,0,0,0-1.715,2.1c-.088.122-.168.247-.247.369a13.247,13.247,0,0,0-1.258,3.581,140.405,140.405,0,0,0-2.248,16.246s-1.606,12.409-1.107,20.67a23.161,23.161,0,0,0,.633,4.542c1.891,6.986-4.059,12.463-4.059,12.463a20.435,20.435,0,0,0-1.984,9.779Z" fill="#ff6584"/>
    <path id="路径_2581" data-name="路径 2581" d="M118.665,177.4s.994-.143,2.407-.419c3.695-.738,10.278-2.457,9.733-5.271-.47-2.453-4.915-2.059-8.148-1.426a33.783,33.783,0,0,0-3.393.839Z" fill="#ffc1c7"/>
    <path id="路径_2582" data-name="路径 2582" d="M69.772,157.933c1.984,1.51,6.894,5.665,10.668,8.593,2.126,1.648,5.091,3.594,7.276,4.986.294-4.512.5-8.806.44-12.266-1.485-1.2-1.979-2.759-4.219-5.372-3.967-4.613-11.05-6.232-11.05-6.232-4.709-1.04-5.087,8.765-3.116,10.291Z" opacity="0.1"/>
    <path id="路径_2583" data-name="路径 2583" d="M118.665,177.4s.994-.143,2.407-.419l1.585-6.71a33.783,33.783,0,0,0-3.393.839Z" opacity="0.1"/>
    <path id="路径_2584" data-name="路径 2584" d="M72.9,146.887s7.083,1.6,11.05,6.232,2.516,2.516,10.668,7.838c4.558,2.973,11.973,4.508,16.653,5.221a39.545,39.545,0,0,1,9.305,2.638l1.518.637-2.361,10.018s-1.51-1.04-10.291-1.132-18.791-5.762-18.791-5.762-6.42-3.871-10.2-6.8-8.685-7.091-10.681-8.6-1.594-11.331,3.128-10.291Z" fill="#e8f4ff"/>
    <path id="路径_2585" data-name="路径 2585" d="M61.8,148.925c1.375.839,3.04.495,5.032-1.975,5.359-6.685,14.258-.025,20.163,3.934-.965-3.284-3.154-4.336-5.338-6.391-6.332-5.951-13.419-6.685-18.355.482-.088.122-.168.247-.247.369a12.579,12.579,0,0,0-1.254,3.581Z" opacity="0.1"/>
    <path id="路径_2586" data-name="路径 2586" d="M61.8,148.171c1.375.839,3.04.495,5.032-1.975a2.323,2.323,0,0,1,.155-.189,7.322,7.322,0,0,1,2.881-2.151,7.129,7.129,0,0,1,3-.5c4.726.151,10.123,4.085,14.128,6.773-.965-3.288-3.154-4.336-5.338-6.391a19.986,19.986,0,0,0-4.823-3.43c-3.548-1.732-7.129-1.732-10.207.44a12.053,12.053,0,0,0-1.61,1.371,15.248,15.248,0,0,0-1.715,2.1c-.088.122-.168.247-.247.369a12.665,12.665,0,0,0-1.254,3.585Z" fill="#ff6584"/>
    <path id="路径_2587" data-name="路径 2587" d="M53.027,211.112A20.7,20.7,0,0,0,56.911,222.2c16.355-11.323,30.973-5,30.973-5s.868-5.7,1.208-12.216c-6.227-.055-23.962.092-29.913,3.355a39.478,39.478,0,0,1-6.152,2.772Z" opacity="0.1"/>
    <path id="路径_2588" data-name="路径 2588" d="M53.027,211.866a20.7,20.7,0,0,0,3.883,11.092c16.355-11.323,30.973-5,30.973-5s.868-5.7,1.208-12.216c-6.227-.055-23.962.092-29.913,3.355a39.478,39.478,0,0,1-6.152,2.772Z" fill="#e8f4ff"/>
    <path id="路径_2589" data-name="路径 2589" d="M83.288,117.554l-.457-.344a1,1,0,0,1,.189.327Z" opacity="0.1"/>
    <path id="路径_2590" data-name="路径 2590" d="M58.45,185.086a12.375,12.375,0,0,0,1.505-1.866c3.95-5.837,4.76-13.31,3.229-20.129-.34-1.514-.784-3.116-.239-4.575.746-2,3.095-3.049,4.164-4.911,1.3-2.277.4-5.032-.126-7.607a1.479,1.479,0,0,0-.059-.3c-.092-.465-.164-.939-.218-1.409a19.555,19.555,0,0,1,.872-8.408c.046-.138.092-.277.143-.419a12.74,12.74,0,0,1,1.157-2.428,7,7,0,0,1,4.1-3.3,3.237,3.237,0,0,0,1.413-.528c1.061-.927-.147-2.516-.386-3.883-.294-1.6.956-3.128,2.432-3.925a22.309,22.309,0,0,1,4.026-1.4,10.3,10.3,0,0,0-15.91,12.933H64.1c-1.413,0-2.1.113-1.455.361,1.824.7,2.269,5.754,2.369,8.832a15.248,15.248,0,0,0-1.715,2.1c-.088.122-.168.247-.247.369a13.247,13.247,0,0,0-1.258,3.581,140.405,140.405,0,0,0-2.248,16.246s-1.594,12.417-1.095,20.678Z" opacity="0.1"/>
    <path id="路径_2591" data-name="路径 2591" d="M82.076,116.832c.767.91-.486,2.139-1.627,2.55a33.107,33.107,0,0,0-4.764,1.648c-1.476.809-2.722,2.323-2.436,3.925.247,1.363,1.451,2.935.39,3.883a3.3,3.3,0,0,1-1.413.533c-2.667.679-4.357,3.216-5.259,5.728a19.441,19.441,0,0,0-.8,10.228c.507,2.655,1.539,5.544.185,7.909-1.069,1.866-3.418,2.906-4.164,4.911-.545,1.459-.1,3.061.239,4.575,1.531,6.81.721,14.283-3.229,20.129a9.268,9.268,0,0,1-3.045,3.045,10.333,10.333,0,0,1-5.737.881,30.773,30.773,0,0,1-6.525-1.187,9.645,9.645,0,0,0,3.128-5.7c-1.946-.6-4.256-.218-5.892-1.4-2.269-1.635-1.656-5.171.046-7.355S45.37,167.36,46.783,165c3.862-6.567-2.449-15.39.977-22.176.889-1.761,2.378-3.216,3.086-5.032.839-2.189.482-4.613.4-6.936a28.071,28.071,0,0,1,3.141-13.885,15.765,15.765,0,0,1,5.6-6.462,8.874,8.874,0,0,1,8.429-.612c1.149.6,2.1,1.5,3.292,2.021,2.29,1,5.192.461,7.2,1.908s1.095,3.3,3.623,3.355" fill="#965d7b"/>
    <path id="路径_2592" data-name="路径 2592" d="M71.752,188.278c-.981.491-2.935,4.915-7.372,8.11S71.752,188.278,71.752,188.278Z" opacity="0.1"/>
    <path id="路径_2593" data-name="路径 2593" d="M73.718,179.429s-5.653,11.8-12.287,13.516,12.287-13.516,12.287-13.516Z" opacity="0.1"/>
    <path id="路径_2594" data-name="路径 2594" d="M84.169,208.071s-1.887,5.917-1.51,6.42S84.169,208.071,84.169,208.071Z" opacity="0.1"/>
    <path id="路径_2595" data-name="路径 2595" d="M80.516,208.323s-1.887,5.917-1.51,6.42S80.516,208.323,80.516,208.323Z" opacity="0.1"/>
    <path id="路径_2596" data-name="路径 2596" d="M76.365,208.2s-1.891,5.917-1.514,6.42S76.365,208.2,76.365,208.2Z" opacity="0.1"/>
    <path id="路径_2597" data-name="路径 2597" d="M56.2,212.881s1.212,6.089,1.786,6.349S56.2,212.881,56.2,212.881Z" opacity="0.1"/>
    <path id="路径_2598" data-name="路径 2598" d="M63.247,210.235s1.212,6.093,1.786,6.349-1.786-6.349-1.786-6.349Z" opacity="0.1"/>
    <path id="路径_2599" data-name="路径 2599" d="M59.221,212s1.212,6.089,1.786,6.349S59.221,212,59.221,212Z" opacity="0.1"/>
    <path id="路径_2600" data-name="路径 2600" d="M94.871,164.2c-.315.063.944,3.082-2.646,3.271S94.871,164.2,94.871,164.2Z" opacity="0.1"/>
    <path id="路径_2601" data-name="路径 2601" d="M118.979,171.814s-1.384,2.894-3.653,3.46S118.979,171.814,118.979,171.814Z" opacity="0.1"/>
    <path id="路径_2602" data-name="路径 2602" d="M108.089,169.99s3.024,3.145-1.2,3.837S108.089,169.99,108.089,169.99Z" opacity="0.1"/>
    <path id="路径_2603" data-name="路径 2603" d="M84.106,157.9s-6.169-1.891-7.129-.507S84.106,157.9,84.106,157.9Z" opacity="0.1"/>
    <path id="路径_2604" data-name="路径 2604" d="M73.307,165.633c-.985.491-2.935,4.915-7.376,8.11S73.307,165.633,73.307,165.633Z" opacity="0.1"/>
    <g id="组_43" data-name="组 43" transform="translate(40.677 109.032)" opacity="0.1">
      <path id="路径_2605" data-name="路径 2605" d="M28.952,1.929A29.763,29.763,0,0,1,25.962.075a6.932,6.932,0,0,1,1.585.587c.906.47,1.7,1.132,2.571,1.648a7.02,7.02,0,0,1-1.166-.382Z"/>
      <path id="路径_2606" data-name="路径 2606" d="M41.675,7.955,41.4,7.934a1.015,1.015,0,0,0-.185-.323Z"/>
      <path id="路径_2607" data-name="路径 2607" d="M4.269,69.911c-.021.13-.055.26-.08.394a8.075,8.075,0,0,1-3.9-1.023,39.95,39.95,0,0,1,3.984.629Z"/>
      <path id="路径_2608" data-name="路径 2608" d="M7.666,76.788a10.265,10.265,0,0,0,5.737-.881,9.255,9.255,0,0,0,3.045-3.04c3.95-5.842,4.76-13.314,3.229-20.129-.34-1.514-.784-3.12-.243-4.575.751-2,3.1-3.049,4.168-4.911,1.355-2.365.323-5.255-.189-7.909a19.479,19.479,0,0,1,.8-10.228c.9-2.516,2.592-5.032,5.263-5.733a3.313,3.313,0,0,0,1.413-.528c1.057-.931-.147-2.516-.39-3.883-.289-1.6.96-3.133,2.432-3.925A35.084,35.084,0,0,1,37.692,9.4c1.011-.365,2.1-1.371,1.816-2.227l.268.021-.453-.344a1,1,0,0,1,.185.323c-2.181-.189-1.4-1.942-3.355-3.355l-.189-.122a5.7,5.7,0,0,1,2.1.876c1.946,1.4,1.17,3.158,3.355,3.355.294.839-.805,1.862-1.812,2.227A33.108,33.108,0,0,0,34.84,11.8c-1.476.809-2.722,2.323-2.436,3.925.247,1.363,1.451,2.935.39,3.883a3.3,3.3,0,0,1-1.413.533c-2.667.679-4.357,3.216-5.259,5.728a19.483,19.483,0,0,0-.8,10.236c.512,2.655,1.543,5.544.189,7.909-1.069,1.866-3.418,2.906-4.164,4.911-.545,1.459-.1,3.061.239,4.575,1.531,6.81.721,14.283-3.229,20.129a9.305,9.305,0,0,1-3.045,3.045,10.333,10.333,0,0,1-5.737.881,30.773,30.773,0,0,1-6.525-1.187c.08-.067.147-.143.222-.214a30.043,30.043,0,0,0,4.395.633Z"/>
    </g>
    <path id="路径_2609" data-name="路径 2609" d="M340.562,27.153s-35.306-2.126-31.146,22.616c0,0-.839,4.374,3.137,6.357,0,0,.063-1.833,3.623-1.212a16.3,16.3,0,0,0,3.833.185,7.968,7.968,0,0,0,4.693-1.937c1.311-1.14,9.926-4.1,13.784-20.322,0,0,2.856-3.535,2.743-4.445l-5.959,2.541s2.038,4.3.419,7.871c0,0-.193-7.712-1.338-7.548-.235.038-3.1,1.489-3.1,1.489s3.506,7.49.839,12.933c0,0,1.006-9.226-1.95-12.392l-4.194,2.449s4.1,7.737,1.321,14.044c0,0,.713-9.679-2.2-13.444l-3.8,2.965s3.892,7.653,1.535,12.87c0,0-.306-11.268-2.327-12.119,0,0-3.321,2.935-3.829,4.139,0,0,2.634,5.531,1,8.454,0,0-1-7.511-1.824-7.548,0,0-3.313,4.974-3.657,8.387a18.091,18.091,0,0,1,2.856-8.861,9.969,9.969,0,0,0-5.074,2.629s.516-3.518,5.871-3.825c0,0,2.734-3.774,3.468-4,0,0-5.347-.449-8.588.99,0,0,2.856-3.317,9.57-1.812l3.774-3.061s-7.041-.965-10.023.1c0,0,3.435-2.935,11.033-.8l4.085-2.445s-6-1.292-9.574-.839c0,0,3.774-2.034,10.769.172l2.935-1.313s-4.395-.864-5.682-1-1.359-.491-1.359-.491a15.21,15.21,0,0,1,8.261.918s6.19-2.306,6.076-2.7Z" fill="#6c63ff"/>
    <path id="路径_2610" data-name="路径 2610" d="M304.347,16.153s-15.935-.965-14.073,10.215a2.727,2.727,0,0,0,1.417,2.873s.029-.839,1.635-.545a7.377,7.377,0,0,0,1.736.084,3.619,3.619,0,0,0,2.1-.876c.587-.51,4.483-1.854,6.227-9.184,0,0,1.292-1.6,1.258-2.009l-2.692,1.149a4.843,4.843,0,0,1,.2,3.556s-.088-3.485-.6-3.4c-.109,0-1.4.671-1.4.671s1.581,3.384.39,5.842c0,0,.453-4.168-.885-5.594l-1.9,1.1s1.849,3.5.6,6.349c0,0,.323-4.374-.994-6.076l-1.715,1.338s1.736,3.443.675,5.808c0,0-.138-5.091-1.048-5.452a10.46,10.46,0,0,0-1.732,1.866s1.191,2.516.453,3.82c0,0-.453-3.393-.839-3.405a11.288,11.288,0,0,0-1.652,3.774,8.148,8.148,0,0,1,1.292-4,4.5,4.5,0,0,0-2.294,1.187s.235-1.589,2.663-1.728a10.46,10.46,0,0,1,1.568-1.807,9.857,9.857,0,0,0-3.883.449s1.292-1.5,4.324-.839l1.7-1.384s-3.183-.419-4.529.046c0,0,1.552-1.329,4.982-.361l1.849-1.107a16.8,16.8,0,0,0-4.328-.373s1.7-.918,4.869.08l1.317-.6s-1.984-.39-2.566-.449-.612-.222-.612-.222a6.873,6.873,0,0,1,3.732.419,15.819,15.819,0,0,0,2.768-1.216Z" fill="#6c63ff"/>
    <ellipse id="椭圆_75" data-name="椭圆 75" cx="11.293" cy="1.908" rx="11.293" ry="1.908" transform="translate(432.317 300.443)" fill="#6c63ff" opacity="0.1"/>
    <ellipse id="椭圆_76" data-name="椭圆 76" cx="11.293" cy="1.908" rx="11.293" ry="1.908" transform="translate(1.925 332.184)" fill="#6c63ff" opacity="0.1"/>
    <ellipse id="椭圆_77" data-name="椭圆 77" cx="11.293" cy="1.908" rx="11.293" ry="1.908" transform="translate(67.483 334.574)" fill="#6c63ff" opacity="0.1"/>
    <ellipse id="椭圆_78" data-name="椭圆 78" cx="16.862" cy="2.852" rx="16.862" ry="2.852" transform="translate(402.032 319.946)" fill="#6c63ff"/>
    <path id="路径_2611" data-name="路径 2611" d="M425.863,318.135a4.915,4.915,0,0,0,1.606-2.424,2.157,2.157,0,0,0-1.124-2.474c-1.032-.394-2.135.323-2.969,1.044s-1.795,1.547-2.889,1.392a4.395,4.395,0,0,0,1.363-4.114,1.732,1.732,0,0,0-.382-.839c-.57-.612-1.61-.348-2.294.134-2.181,1.531-2.789,4.5-2.8,7.158a13.73,13.73,0,0,1-.042-2.935,3.02,3.02,0,0,0-1.107-2.608,3.355,3.355,0,0,0-1.677-.419,3.478,3.478,0,0,0-2.738.78,2.7,2.7,0,0,0,.1,3.355,10.677,10.677,0,0,0,2.839,2.273,6.29,6.29,0,0,1,2.025,1.933,1.745,1.745,0,0,1,.151.348h6.148a17.294,17.294,0,0,0,3.787-2.6Z" fill="#6c63ff"/>
    <path id="路径_2612" data-name="路径 2612" d="M18.485,282.972s2.3,3.011-1.061,7.548-6.144,8.387-5.032,11.222c0,0,5.083-8.446,9.226-8.563s1.417-5.129-3.133-10.207Z" fill="#6c63ff"/>
    <path id="路径_2613" data-name="路径 2613" d="M18.485,282.972a3.619,3.619,0,0,1,.47.944c4.034,4.739,6.185,9.163,2.306,9.276-3.611.1-7.947,6.563-8.983,8.194.034.122.075.247.122.369,0,0,5.083-8.446,9.226-8.563s1.409-5.141-3.141-10.22Z" opacity="0.1"/>
    <path id="路径_2614" data-name="路径 2614" d="M22.767,286.826c0,1.061-.117,1.921-.264,1.921s-.264-.839-.264-1.921.147-.558.294-.558.235-.52.235.558Z" fill="#ffd037"/>
    <path id="路径_2615" data-name="路径 2615" d="M24.239,288.084c-.931.507-1.745.814-1.816.688s.629-.646,1.56-1.153.566-.138.633,0,.554-.05-.377.465Z" fill="#ffd037"/>
    <path id="路径_2616" data-name="路径 2616" d="M6.315,282.972s-2.3,3.011,1.065,7.548,6.144,8.387,5.032,11.222c0,0-5.078-8.446-9.226-8.563S1.77,288.05,6.315,282.972Z" fill="#6c63ff"/>
    <path id="路径_2617" data-name="路径 2617" d="M6.315,282.972a3.774,3.774,0,0,0-.47.944c-4.034,4.739-6.181,9.163-2.306,9.276,3.615.1,7.968,6.563,8.987,8.194-.038.122-.075.247-.126.369,0,0-5.078-8.446-9.226-8.563s-1.4-5.141,3.141-10.22Z" opacity="0.1"/>
    <path id="路径_2618" data-name="路径 2618" d="M2.034,286.826c0,1.061.117,1.921.268,1.921s.264-.839.264-1.921-.151-.558-.3-.558-.235-.52-.235.558Z" fill="#ffd037"/>
    <path id="路径_2619" data-name="路径 2619" d="M.579,288.084c.931.507,1.74.814,1.812.688s-.629-.646-1.56-1.153-.562-.138-.633,0-.562-.05.382.465Z" fill="#ffd037"/>
    <path id="路径_2620" data-name="路径 2620" d="M2.768,301.361s6.441-.2,8.387-1.581,9.905-3.032,10.392-.793,9.683,11.025,2.407,11.083-16.9-1.132-18.833-2.315-2.353-6.4-2.353-6.4Z" fill="#a8a8a8"/>
    <path id="路径_2621" data-name="路径 2621" d="M24.063,309.278c-7.272.059-16.9-1.132-18.833-2.315-1.476-.9-2.063-4.122-2.26-5.611H2.755s.419,5.2,2.344,6.374,11.562,2.374,18.833,2.315c2.1,0,2.826-.763,2.785-1.87-.277.675-1.078,1.095-2.655,1.107Z" opacity="0.2"/>
  </g>
</svg>
