<?xml version="1.0" standalone="no"?>
<!DOCTYPE svg PUBLIC "-//W3C//DTD SVG 20010904//EN"
 "http://www.w3.org/TR/2001/REC-SVG-20010904/DTD/svg10.dtd">
<svg version="1.0" xmlns="http://www.w3.org/2000/svg"
 width="850.000000pt" height="850.000000pt" viewBox="0 0 850.000000 850.000000"
 preserveAspectRatio="xMidYMid meet">
<metadata>
Created by potrace 1.11, written by Peter Selinger 2001-2013
</metadata>
<g transform="translate(0.000000,850.000000) scale(0.100000,-0.100000)"
fill="#000000" stroke="none">
<path d="M2199 8496 c-2 -2 -40 -7 -84 -11 -44 -4 -89 -9 -100 -11 -210 -38
-348 -76 -505 -137 -349 -135 -679 -368 -928 -653 -73 -84 -202 -256 -202
-271 0 -6 -4 -13 -8 -15 -12 -5 -105 -171 -152 -273 -94 -203 -169 -456 -196
-665 -3 -25 -8 -56 -12 -70 -4 -14 -7 -961 -9 -2105 -2 -1979 -1 -2087 17
-2216 27 -198 90 -443 146 -566 8 -17 14 -34 14 -37 0 -16 108 -231 162 -319
58 -97 181 -269 237 -331 73 -80 225 -226 296 -283 274 -221 641 -403 948
-469 103 -22 200 -39 292 -51 76 -10 4152 -11 4260 -1 44 4 105 12 135 18 30
6 66 13 80 16 14 2 36 7 50 10 14 3 33 7 42 9 52 11 186 52 273 85 501 189
918 531 1197 985 58 96 157 294 179 360 7 22 16 45 20 50 25 38 110 370 124
480 3 28 10 82 14 120 11 85 8 4190 -3 4255 -18 109 -45 257 -50 275 -80 326
-214 614 -399 860 -180 238 -374 421 -612 578 -114 74 -328 187 -425 222 -191
70 -412 128 -540 141 -36 3 -85 10 -110 15 -43 8 -4143 13 -4151 5z"/>
</g>
</svg>
